<?xml version="1.0" encoding="UTF-8"?>
<svg version="1.1" xmlns="http://www.w3.org/2000/svg" width="1280" height="1280">
<path d="M0 0 C3.70377819 0.0025633 7.40755232 -0.00073362 11.11132991 -0.00324333 C17.58692105 -0.00683716 24.06250384 -0.00675651 30.53809536 -0.00419617 C40.16786035 -0.00039915 49.79761835 -0.00235495 59.4273833 -0.00540448 C76.63044744 -0.01065986 93.83350785 -0.01021796 111.03657234 -0.00732557 C126.09155428 -0.00480686 141.14653487 -0.00415478 156.20151699 -0.00534821 C157.70131525 -0.00546279 157.70131525 -0.00546279 159.23141247 -0.00557968 C163.29051633 -0.00589104 167.34962018 -0.00620944 171.40872404 -0.00653944 C209.46154739 -0.00959626 247.51436838 -0.00682844 285.56719136 -0.00144255 C319.35130703 0.00330281 353.13541893 0.00287817 386.91953456 -0.00190354 C424.90417718 -0.00726186 462.88881771 -0.00937945 500.87346065 -0.00629128 C504.92503281 -0.00597057 508.97660498 -0.00565773 513.02817714 -0.00534821 C514.02572747 -0.00526913 515.0232778 -0.00519006 516.05105692 -0.00510858 C531.09404939 -0.00397263 546.13704035 -0.00529855 561.18003261 -0.00782776 C578.29001957 -0.01069022 595.40000224 -0.00996536 612.50998867 -0.00454702 C622.07774881 -0.00161682 631.64549965 -0.00141026 641.21325955 -0.00519319 C647.61319718 -0.00744388 654.01312738 -0.00602507 660.41306391 -0.00168843 C664.05334048 0.00067833 667.69359863 0.00152896 671.33387458 -0.00209441 C748.44844564 -0.07309583 819.44003546 21.42297494 876.81015956 74.53471755 C879.25099443 76.79197988 881.69856154 79.03799625 884.17734706 81.25346755 C884.77676113 81.79229568 885.37617519 82.3311238 885.99375331 82.88628005 C887.71028003 84.34139483 887.71028003 84.34139483 890.61484706 85.12846755 C890.95473152 86.46014599 891.28726886 87.79370862 891.61484706 89.12846755 C893.11886585 90.81752019 893.11886585 90.81752019 894.98984706 92.25346755 C895.59570644 92.75104568 896.20156581 93.2486238 896.82578456 93.76128005 C898.3763107 94.94617994 899.99115063 96.04600327 901.61484706 97.12846755 C901.75922206 97.78846755 901.90359706 98.44846755 902.05234706 99.12846755 C902.23797206 99.78846755 902.42359706 100.44846755 902.61484706 101.12846755 C903.93131825 101.82784287 905.26506858 102.49575889 906.61484706 103.12846755 C906.94484706 104.11846755 907.27484706 105.10846755 907.61484706 106.12846755 C908.27484706 106.45846755 908.93484706 106.78846755 909.61484706 107.12846755 C909.75922206 107.78846755 909.90359706 108.44846755 910.05234706 109.12846755 C910.23797206 109.78846755 910.42359706 110.44846755 910.61484706 111.12846755 C911.60484706 111.45846755 912.59484706 111.78846755 913.61484706 112.12846755 C913.94484706 113.11846755 914.27484706 114.10846755 914.61484706 115.12846755 C915.27484706 115.78846755 915.93484706 116.44846755 916.61484706 117.12846755 C918.61484706 119.12846755 918.61484706 119.12846755 919.61484706 122.12846755 C920.59925809 123.14381721 921.60160379 124.14188858 922.61484706 125.12846755 C923.69131538 126.58250312 924.73164252 128.06379344 925.73984706 129.56596755 C926.25805019 130.32780349 926.77625331 131.08963943 927.31015956 131.8745613 C928.61484706 134.12846755 928.61484706 134.12846755 929.10703456 136.2261238 C929.4656791 138.21309198 929.4656791 138.21309198 931.00742519 139.50542068 C932.72309292 141.23776562 933.70405063 142.84952441 934.84140956 144.9995613 C935.23328456 145.73883865 935.62515956 146.47811599 936.02890956 147.23979568 C936.62832363 148.39125076 936.62832363 148.39125076 937.23984706 149.56596755 C937.64719081 150.32973709 938.05453456 151.09350662 938.47422206 151.88042068 C941.49289905 157.62290389 941.49289905 157.62290389 942.11240566 160.19121169 C942.58068497 162.43260993 942.58068497 162.43260993 944.61484706 165.12846755 C945.00498422 167.11816706 945.34687356 169.11866624 945.61484706 171.12846755 C946.27484706 171.12846755 946.93484706 171.12846755 947.61484706 171.12846755 C947.61484706 172.77846755 947.61484706 174.42846755 947.61484706 176.12846755 C948.27484706 176.12846755 948.93484706 176.12846755 949.61484706 176.12846755 C949.61484706 177.77846755 949.61484706 179.42846755 949.61484706 181.12846755 C950.27484706 181.12846755 950.93484706 181.12846755 951.61484706 181.12846755 C951.94484706 183.76846755 952.27484706 186.40846755 952.61484706 189.12846755 C953.27484706 189.12846755 953.93484706 189.12846755 954.61484706 189.12846755 C954.71797206 190.38659255 954.82109706 191.64471755 954.92734706 192.94096755 C955.53075197 198.51358935 957.02175639 203.76806813 958.61484706 209.12846755 C959.27484706 209.12846755 959.93484706 209.12846755 960.61484706 209.12846755 C960.57617519 210.25253005 960.53750331 211.37659255 960.49765956 212.53471755 C960.4997974 217.40042987 961.44094149 221.89521759 962.48984706 226.62846755 C967.55478243 250.80980808 967.76792586 274.94076487 967.74331462 299.55980691 C967.74074863 303.25262294 967.74404928 306.94543491 967.74655795 310.63825035 C967.75014986 317.09307365 967.75007233 323.54788857 967.74751079 330.00271224 C967.74371199 339.60163329 967.74567049 349.20054733 967.7487191 358.79946833 C967.75397311 375.94795536 967.75353313 393.09643865 967.75064019 410.24492603 C967.74812101 425.25218848 967.74746962 440.25944956 967.74866283 455.26671218 C967.74873921 456.26359114 967.7488156 457.26047009 967.7488943 458.28755749 C967.74920566 462.3345849 967.74952406 466.38161231 967.74985406 470.42863971 C967.75291056 508.36459884 967.75014358 546.30055559 967.74475717 584.23651435 C967.74001184 617.91339065 967.74043648 651.59026317 967.74521816 685.26713943 C967.75057702 723.13533651 967.75269376 761.00353149 967.74960589 798.87172889 C967.74928519 802.9112269 967.74897235 806.95072491 967.74866283 810.99022293 C967.74858375 811.98479303 967.74850467 812.97936313 967.7484232 814.00407172 C967.74728748 828.99900844 967.74861274 843.99394364 967.75114238 858.98888015 C967.75400546 876.04501551 967.75327866 893.10114657 967.74786164 910.15728139 C967.74493248 919.69373141 967.74472336 929.23017209 967.74850781 938.76662186 C967.75075977 945.14692997 967.74933743 951.52723064 967.74500304 957.90753766 C967.74263802 961.53576491 967.74178195 965.16397369 967.74540903 968.79220032 C967.76351761 988.4039706 967.77037465 1007.84443198 964.67734706 1027.25346755 C964.50783535 1028.38010818 964.33832363 1029.5067488 964.16367519 1030.66753005 C963.30980744 1036.22578702 962.34868683 1041.70787946 960.99204433 1047.16679763 C960.35010985 1050.50527243 960.49163202 1053.74005386 960.61484706 1057.12846755 C959.95484706 1057.12846755 959.29484706 1057.12846755 958.61484706 1057.12846755 C958.19912441 1058.79135818 958.19912441 1058.79135818 957.77500331 1060.48784255 C956.7216179 1064.70138422 955.66823248 1068.91492589 954.61484706 1073.12846755 C954.45041103 1073.82746169 954.28597499 1074.52645584 954.11655605 1075.24663162 C953.61484706 1077.12846755 953.61484706 1077.12846755 952.61484706 1079.12846755 C952.25565386 1081.12398537 951.91988138 1083.12395635 951.61484706 1085.12846755 C950.95484706 1085.12846755 950.29484706 1085.12846755 949.61484706 1085.12846755 C949.61484706 1086.77846755 949.61484706 1088.42846755 949.61484706 1090.12846755 C948.95484706 1090.12846755 948.29484706 1090.12846755 947.61484706 1090.12846755 C947.61484706 1091.77846755 947.61484706 1093.42846755 947.61484706 1095.12846755 C946.95484706 1095.12846755 946.29484706 1095.12846755 945.61484706 1095.12846755 C944.95484706 1098.09846755 944.29484706 1101.06846755 943.61484706 1104.12846755 C942.95484706 1104.12846755 942.29484706 1104.12846755 941.61484706 1104.12846755 C941.54008144 1104.93670974 941.46531581 1105.74495193 941.38828456 1106.5776863 C940.39037059 1111.15901864 938.45189964 1114.83536997 936.23984706 1118.94096755 C935.84023769 1119.71633865 935.44062831 1120.49170974 935.02890956 1121.29057693 C934.63703456 1122.02727615 934.24515956 1122.76397537 933.84140956 1123.5229988 C933.48643398 1124.19178054 933.13145839 1124.86056228 932.76572597 1125.54961013 C931.61484706 1127.12846755 931.61484706 1127.12846755 928.61484706 1128.12846755 C928.5207455 1128.8348738 928.42664394 1129.54128005 928.32969081 1130.26909255 C927.48580637 1133.64463032 926.07046349 1135.96598075 924.17734706 1138.87846755 C923.55988613 1139.8426863 922.94242519 1140.80690505 922.30625331 1141.80034255 C920.61484706 1144.12846755 920.61484706 1144.12846755 918.61484706 1145.12846755 C918.30547206 1145.93284255 917.99609706 1146.73721755 917.67734706 1147.56596755 C916.61484706 1150.12846755 916.61484706 1150.12846755 913.61484706 1152.12846755 C913.28484706 1153.11846755 912.95484706 1154.10846755 912.61484706 1155.12846755 C911.62484706 1155.45846755 910.63484706 1155.78846755 909.61484706 1156.12846755 C909.24274286 1157.45150472 908.90854533 1158.7858469 908.61484706 1160.12846755 C907.95484706 1160.45846755 907.29484706 1160.78846755 906.61484706 1161.12846755 C906.28484706 1162.11846755 905.95484706 1163.10846755 905.61484706 1164.12846755 C904.62484706 1164.59253005 904.62484706 1164.59253005 903.61484706 1165.06596755 C902.95484706 1165.41659255 902.29484706 1165.76721755 901.61484706 1166.12846755 C901.47047206 1166.76784255 901.32609706 1167.40721755 901.17734706 1168.06596755 C900.34361193 1171.12299639 898.29624494 1171.54400517 895.61484706 1173.12846755 C892.90122459 1175.85716571 890.84679877 1178.43261242 889.61484706 1182.12846755 C888.28697767 1182.80595194 886.95228413 1183.47007229 885.61484706 1184.12846755 C883.76379982 1185.73082448 881.95611808 1187.3837377 880.17734706 1189.06596755 C863.15965316 1204.90354522 844.81553582 1218.57681564 824.61484706 1230.12846755 C823.82835781 1230.57931716 823.04186855 1231.03016677 822.23154628 1231.49467849 C773.97715239 1258.78363735 722.6728637 1266.3114072 668.18350771 1266.25693511 C664.49069168 1266.25436912 660.79787971 1266.25766977 657.10506427 1266.26017844 C650.65024097 1266.26377035 644.19542605 1266.26369282 637.74060237 1266.26113128 C628.14168133 1266.25733248 618.54276729 1266.25929098 608.94384629 1266.26233959 C591.79535926 1266.2675936 574.64687597 1266.26715362 557.49838859 1266.26426068 C542.49112614 1266.2617415 527.48386505 1266.26109011 512.47660244 1266.26228332 C511.47972348 1266.2623597 510.48284453 1266.26243609 509.45575713 1266.26251479 C505.40872972 1266.26282615 501.36170231 1266.26314455 497.31467491 1266.26347455 C459.37871578 1266.26653105 421.44275903 1266.26376407 383.50680026 1266.25837766 C349.82992397 1266.25363233 316.15305145 1266.25405697 282.47617519 1266.25883865 C244.60797811 1266.26419751 206.73978313 1266.26631425 168.87158573 1266.26322638 C164.83208772 1266.26290568 160.7925897 1266.26259284 156.75309169 1266.26228332 C155.26123654 1266.2621647 155.26123654 1266.2621647 153.7392429 1266.26204369 C138.74430618 1266.26090797 123.74937098 1266.26223323 108.75443447 1266.26476287 C91.69829911 1266.26762595 74.64216805 1266.26689915 57.58603323 1266.26148213 C48.04958321 1266.25855297 38.51314253 1266.25834385 28.97669276 1266.2621283 C22.59638465 1266.26438026 16.21608398 1266.26295793 9.83577696 1266.25862353 C6.20754971 1266.25625851 2.57934093 1266.25540244 -1.0488857 1266.25902952 C-78.60052243 1266.33073855 -149.83798091 1245.17868159 -207.58046544 1191.72221755 C-210.0213003 1189.46495523 -212.46886741 1187.21893886 -214.94765294 1185.00346755 C-215.84677403 1184.19522537 -215.84677403 1184.19522537 -216.76405919 1183.37065505 C-218.48058591 1181.91554027 -218.48058591 1181.91554027 -221.38515294 1181.12846755 C-221.72503739 1179.79678912 -222.05757474 1178.46322649 -222.38515294 1177.12846755 C-223.88917172 1175.43941492 -223.88917172 1175.43941492 -225.76015294 1174.00346755 C-226.36601231 1173.50588943 -226.97187169 1173.0083113 -227.59609044 1172.49565505 C-229.14661657 1171.31075517 -230.76145651 1170.21093184 -232.38515294 1169.12846755 C-232.52952794 1168.46846755 -232.67390294 1167.80846755 -232.82265294 1167.12846755 C-233.00827794 1166.46846755 -233.19390294 1165.80846755 -233.38515294 1165.12846755 C-234.70162412 1164.42909224 -236.03537445 1163.76117622 -237.38515294 1163.12846755 C-237.88015294 1161.64346755 -237.88015294 1161.64346755 -238.38515294 1160.12846755 C-239.04515294 1159.79846755 -239.70515294 1159.46846755 -240.38515294 1159.12846755 C-240.52952794 1158.46846755 -240.67390294 1157.80846755 -240.82265294 1157.12846755 C-241.00827794 1156.46846755 -241.19390294 1155.80846755 -241.38515294 1155.12846755 C-242.37515294 1154.79846755 -243.36515294 1154.46846755 -244.38515294 1154.12846755 C-244.88015294 1152.64346755 -244.88015294 1152.64346755 -245.38515294 1151.12846755 C-246.04515294 1150.46846755 -246.70515294 1149.80846755 -247.38515294 1149.12846755 C-249.38515294 1147.12846755 -249.38515294 1147.12846755 -250.38515294 1144.12846755 C-251.36956396 1143.1131179 -252.37190966 1142.11504653 -253.38515294 1141.12846755 C-254.46162126 1139.67443199 -255.50194839 1138.19314167 -256.51015294 1136.69096755 C-257.02835606 1135.92913162 -257.54655919 1135.16729568 -258.08046544 1134.3823738 C-259.38515294 1132.12846755 -259.38515294 1132.12846755 -259.87734044 1130.0308113 C-260.23598497 1128.04384312 -260.23598497 1128.04384312 -261.77773106 1126.75151443 C-263.49339879 1125.01916949 -264.4743565 1123.4074107 -265.61171544 1121.2573738 C-266.00359044 1120.51809646 -266.39546544 1119.77881912 -266.79921544 1119.01713943 C-267.3986295 1117.86568435 -267.3986295 1117.86568435 -268.01015294 1116.69096755 C-268.41749669 1115.92719802 -268.82484044 1115.16342849 -269.24452794 1114.37651443 C-272.269671 1108.62173069 -272.269671 1108.62173069 -272.88271153 1106.00322341 C-273.27844533 1103.90187116 -273.27844533 1103.90187116 -275.38515294 1102.12846755 C-275.78562738 1099.80571579 -276.12486333 1097.47107398 -276.38515294 1095.12846755 C-277.04515294 1095.12846755 -277.70515294 1095.12846755 -278.38515294 1095.12846755 C-278.38515294 1093.47846755 -278.38515294 1091.82846755 -278.38515294 1090.12846755 C-279.04515294 1090.12846755 -279.70515294 1090.12846755 -280.38515294 1090.12846755 C-280.38515294 1088.47846755 -280.38515294 1086.82846755 -280.38515294 1085.12846755 C-281.04515294 1085.12846755 -281.70515294 1085.12846755 -282.38515294 1085.12846755 C-282.60171544 1083.70534255 -282.60171544 1083.70534255 -282.82265294 1082.25346755 C-283.21450693 1079.23501815 -283.21450693 1079.23501815 -284.38515294 1077.12846755 C-284.73920131 1075.80048463 -285.07042864 1074.46631564 -285.38515294 1073.12846755 C-285.54378819 1072.49392654 -285.70242344 1071.85938552 -285.86586583 1071.20561599 C-287.03896153 1066.51323318 -288.21205723 1061.82085037 -289.38515294 1057.12846755 C-290.04515294 1057.12846755 -290.70515294 1057.12846755 -291.38515294 1057.12846755 C-291.32714512 1055.4423738 -291.32714512 1055.4423738 -291.26796544 1053.72221755 C-291.27010326 1048.85653024 -292.21115272 1044.36168226 -293.26015294 1039.62846755 C-298.25750324 1015.78954834 -298.53777749 992.01302312 -298.51362049 967.74331462 C-298.51105719 964.03953643 -298.51435411 960.3357623 -298.51686382 956.63198471 C-298.52045765 950.15639356 -298.520377 943.68081078 -298.51781666 937.20521926 C-298.51401964 927.57545427 -298.51597544 917.94569627 -298.51902497 908.31593131 C-298.52428035 891.11286718 -298.52383845 873.90980677 -298.52094606 856.70674228 C-298.51842735 841.65176033 -298.51777527 826.59677975 -298.5189687 811.54179763 C-298.51904509 810.54193212 -298.51912147 809.54206661 -298.51920017 808.51190215 C-298.51951153 804.45279829 -298.51982993 800.39369443 -298.52015994 796.33459058 C-298.52321675 758.28176723 -298.52044893 720.22894624 -298.51506304 682.17612326 C-298.51031768 648.39200759 -298.51074232 614.60789569 -298.51552403 580.82378005 C-298.52088235 542.83913744 -298.52299994 504.85449691 -298.51991177 466.86985397 C-298.51959106 462.8182818 -298.51927822 458.76670964 -298.5189687 454.71513748 C-298.51888962 453.71758715 -298.51881055 452.72003682 -298.51872907 451.6922577 C-298.51759312 436.64926523 -298.51891904 421.60627427 -298.52144825 406.56328201 C-298.52431071 389.45329505 -298.52358585 372.34331238 -298.51816751 355.23332595 C-298.51523731 345.66556581 -298.51503075 336.09781497 -298.51881369 326.53005507 C-298.52106437 320.13011744 -298.51964556 313.73018724 -298.51530892 307.3302507 C-298.51294216 303.68997414 -298.51209153 300.04971599 -298.5157149 296.40944004 C-298.5334329 277.13865821 -298.46426225 258.14125546 -295.44765294 239.06596755 C-295.27814122 237.93481521 -295.1086295 236.80366287 -294.93398106 235.63823318 C-294.08090765 230.06244159 -293.12425421 224.56339076 -291.7623502 219.08794021 C-291.11987828 215.75041292 -291.26196964 212.51600822 -291.38515294 209.12846755 C-290.72515294 209.12846755 -290.06515294 209.12846755 -289.38515294 209.12846755 C-289.1080045 208.0198738 -288.83085606 206.91128005 -288.54530919 205.76909255 C-286.96523106 199.44878005 -286.96523106 199.44878005 -285.38515294 193.12846755 C-285.2207169 192.42947341 -285.05628087 191.73047927 -284.88686192 191.01030349 C-284.38515294 189.12846755 -284.38515294 189.12846755 -283.38515294 187.12846755 C-283.02595973 185.13294974 -282.69018725 183.13297876 -282.38515294 181.12846755 C-281.72515294 181.12846755 -281.06515294 181.12846755 -280.38515294 181.12846755 C-280.38515294 179.47846755 -280.38515294 177.82846755 -280.38515294 176.12846755 C-279.72515294 176.12846755 -279.06515294 176.12846755 -278.38515294 176.12846755 C-278.38515294 174.47846755 -278.38515294 172.82846755 -278.38515294 171.12846755 C-277.72515294 171.12846755 -277.06515294 171.12846755 -276.38515294 171.12846755 C-275.72515294 168.15846755 -275.06515294 165.18846755 -274.38515294 162.12846755 C-273.72515294 162.12846755 -273.06515294 162.12846755 -272.38515294 162.12846755 C-272.2730045 160.91610427 -272.2730045 160.91610427 -272.15859044 159.6792488 C-271.16067646 155.09791647 -269.22220551 151.42156513 -267.01015294 147.31596755 C-266.61054356 146.54059646 -266.21093419 145.76522537 -265.79921544 144.96635818 C-265.40734044 144.22965896 -265.01546544 143.49295974 -264.61171544 142.7339363 C-264.25673985 142.06515457 -263.90176426 141.39637283 -263.53603184 140.70732498 C-262.38515294 139.12846755 -262.38515294 139.12846755 -259.38515294 138.12846755 C-259.29105137 137.4220613 -259.19694981 136.71565505 -259.09999669 135.98784255 C-258.25611224 132.61230479 -256.84076936 130.29095436 -254.94765294 127.37846755 C-254.330192 126.4142488 -253.71273106 125.45003005 -253.07655919 124.45659255 C-251.38515294 122.12846755 -251.38515294 122.12846755 -249.38515294 121.12846755 C-249.07577794 120.32409255 -248.76640294 119.51971755 -248.44765294 118.69096755 C-247.38515294 116.12846755 -247.38515294 116.12846755 -244.38515294 114.12846755 C-243.89015294 112.64346755 -243.89015294 112.64346755 -243.38515294 111.12846755 C-242.39515294 110.79846755 -241.40515294 110.46846755 -240.38515294 110.12846755 C-239.89015294 108.64346755 -239.89015294 108.64346755 -239.38515294 107.12846755 C-238.72515294 106.46846755 -238.06515294 105.80846755 -237.38515294 105.12846755 C-236.89015294 103.64346755 -236.89015294 103.64346755 -236.38515294 102.12846755 C-235.72515294 101.81909255 -235.06515294 101.50971755 -234.38515294 101.19096755 C-233.72515294 100.84034255 -233.06515294 100.48971755 -232.38515294 100.12846755 C-232.24077794 99.48909255 -232.09640294 98.84971755 -231.94765294 98.19096755 C-231.1139178 95.13393872 -229.06655081 94.71292994 -226.38515294 93.12846755 C-223.67153046 90.3997694 -221.61710465 87.82432268 -220.38515294 84.12846755 C-219.05728354 83.45098317 -217.72259 82.78686282 -216.38515294 82.12846755 C-214.53410569 80.52611063 -212.72642396 78.87319741 -210.94765294 77.19096755 C-193.92995903 61.35338989 -175.58584169 47.68011947 -155.38515294 36.12846755 C-154.59866368 35.67761794 -153.81217442 35.22676834 -153.00185215 34.76225662 C-105.08887797 7.66637838 -54.12504555 -0.05387369 0 0 Z M-282.38515294 184.12846755 C-281.38515294 186.12846755 -281.38515294 186.12846755 -281.38515294 186.12846755 Z M950.61484706 184.12846755 C951.61484706 186.12846755 951.61484706 186.12846755 951.61484706 186.12846755 Z M-282.38515294 1080.12846755 C-281.38515294 1082.12846755 -281.38515294 1082.12846755 -281.38515294 1082.12846755 Z M950.61484706 1080.12846755 C951.61484706 1082.12846755 951.61484706 1082.12846755 951.61484706 1082.12846755 Z " fill="#080605" transform="translate(305.38515293598175,6.871532445773482)"/>
<path d="M0 0 C6.15234375 -0.09765625 6.15234375 -0.09765625 8 0 C8.33 0.33 8.66 0.66 9 1 C10.51165654 1.39148761 12.03469632 1.73972457 13.5625 2.0625 C14.38878906 2.23910156 15.21507812 2.41570312 16.06640625 2.59765625 C16.70449219 2.73042969 17.34257813 2.86320313 18 3 C18 3.99 18 4.98 18 6 C18.886875 6.04125 19.77375 6.0825 20.6875 6.125 C25.10190147 7.29106831 26.35941464 9.36027423 29 13 C29.598125 13.721875 30.19625 14.44375 30.8125 15.1875 C32 17 32 17 32 20 C32.66 20 33.32 20 34 20 C36.26112151 34.37632172 36.2847161 48.64881016 36.25073375 63.1752334 C36.24469673 66.71930129 36.25041135 70.26335499 36.25455457 73.80742294 C36.26021123 80.00451365 36.25851707 86.20156761 36.2518692 92.39865685 C36.2420101 101.614945 36.24369471 110.83120649 36.2476195 120.0474978 C36.2538829 135.56221068 36.25073586 151.07690833 36.24202538 166.59161949 C36.23339661 181.96483184 36.22850555 197.33803734 36.22869301 212.71125221 C36.22870448 214.14823526 36.22870448 214.14823526 36.22871618 215.61424826 C36.22875709 219.5035671 36.22882271 223.39288595 36.22892199 227.28220479 C36.22982758 263.7522498 36.21989245 300.22228442 36.20449232 336.69232583 C36.19088322 369.03975845 36.18463049 401.38718368 36.18530273 433.73461914 C36.18534315 435.80990554 36.18538351 437.88519193 36.18542381 439.96047833 C36.18544416 440.98649397 36.18546452 442.01250961 36.18548548 443.06961664 C36.18558629 448.23528534 36.18567687 453.40095403 36.18575573 458.56662273 C36.18577244 459.58589604 36.18578916 460.60516935 36.18580638 461.65532972 C36.18617238 488.73383271 36.18162367 515.81233479 36.17542917 542.89083701 C36.17520889 543.85541857 36.17498862 544.82000012 36.17476168 545.81381142 C36.17387352 549.69202936 36.17298508 553.57024729 36.17207072 557.44846522 C36.16892173 570.89335566 36.16740287 584.33824538 36.16695923 597.78313616 C36.16635961 615.12698964 36.16231644 632.47083704 36.15252777 649.81468793 C36.14744914 658.96888882 36.14499108 668.12308083 36.14652396 677.27728306 C36.1472668 683.41690712 36.14429319 689.55652264 36.13848015 695.69614396 C36.13527833 699.17791531 36.13348612 702.6596683 36.13624074 706.14144047 C36.1440967 720.20411605 36.00321694 734.24974068 35.55414295 748.304883 C35.51542327 749.54535643 35.4767036 750.78582986 35.43681059 752.06389339 C35.21230292 758.42576323 34.80647628 764.68487672 34 771 C33.34 771 32.68 771 32 771 C32.061875 772.8871875 32.061875 772.8871875 32.125 774.8125 C32.14263332 780.34936163 31.13105192 785.59720735 30 791 C29.34 791 28.68 791 28 791 C27.67 793.31 27.34 795.62 27 798 C26.34 798 25.68 798 25 798 C24.67 800.31 24.34 802.62 24 805 C23.34 805 22.68 805 22 805 C21.34 807.97 20.68 810.94 20 814 C19.34 814 18.68 814 18 814 C17.8453125 815.11375 17.8453125 815.11375 17.6875 816.25 C16.94909194 819.20363226 15.8776808 820.652899 14 823 C13.67 823.99 13.34 824.98 13 826 C12.34 826.33 11.68 826.66 11 827 C9.9935725 828.66279327 8.99414593 830.32983484 8 832 C7 833 6 834 5 835 C3.82425289 837.09989652 3.82425289 837.09989652 3 839 C2.34 839 1.68 839 1 839 C0.67 839.99 0.34 840.98 0 842 C-1.65788785 843.34423339 -3.32576317 844.67618483 -5 846 C-5.639375 846.825 -6.27875 847.65 -6.9375 848.5 C-9.96516598 852.16989816 -13.37350913 854.38554789 -17.8125 856.0625 C-18.534375 856.371875 -19.25625 856.68125 -20 857 C-20.33 857.99 -20.66 858.98 -21 860 C-21.99 860 -22.98 860 -24 860 C-24 860.66 -24 861.32 -24 862 C-25.24735567 862.6509259 -26.49801832 863.29551669 -27.75 863.9375 C-28.79414062 864.47697266 -28.79414062 864.47697266 -29.859375 865.02734375 C-31.90224433 865.95558182 -33.81115376 866.53166578 -36 867 C-36 867.66 -36 868.32 -36 869 C-38.31 869.33 -40.62 869.66 -43 870 C-43 870.66 -43 871.32 -43 872 C-44.65 872.33 -46.3 872.66 -48 873 C-48 873.66 -48 874.32 -48 875 C-50.97 875.33 -53.94 875.66 -57 876 C-57 876.66 -57 877.32 -57 878 C-59.64 878.33 -62.28 878.66 -65 879 C-65 879.66 -65 880.32 -65 881 C-68.14408784 881.51139597 -71.29048573 882.00696036 -74.4375 882.5 C-75.31599609 882.64308594 -76.19449219 882.78617188 -77.09960938 882.93359375 C-82.80671625 883.81809002 -88.22494572 884.14099827 -94 884 C-94 884.66 -94 885.32 -94 886 C-106.41626452 887.70838038 -118.7341577 888.21972778 -131.25 888.25 C-132.31417145 888.25749268 -132.31417145 888.25749268 -133.39984131 888.26513672 C-143.74870794 888.32485837 -153.76263401 887.50761613 -164 886 C-164 885.34 -164 884.68 -164 884 C-167.96 883.34 -171.92 882.68 -176 882 C-176 881.34 -176 880.68 -176 880 C-176.928125 879.855625 -177.85625 879.71125 -178.8125 879.5625 C-182 879 -182 879 -185 878 C-185 877.34 -185 876.68 -185 876 C-186.65 875.67 -188.3 875.34 -190 875 C-190 874.34 -190 873.68 -190 873 C-190.969375 872.87625 -191.93875 872.7525 -192.9375 872.625 C-193.948125 872.41875 -194.95875 872.2125 -196 872 C-196.33 871.34 -196.66 870.68 -197 870 C-197.99 869.67 -198.98 869.34 -200 869 C-202.1875 867.0625 -202.1875 867.0625 -204 865 C-204 864.34 -204 863.68 -204 863 C-204.75023437 862.91621094 -205.50046875 862.83242188 -206.2734375 862.74609375 C-209.57679771 861.84216567 -210.52369632 860.71551584 -212.625 858.0625 C-214.72188606 855.44850856 -216.16616274 853.88922484 -219 852 C-219.33 851.01 -219.66 850.02 -220 849 C-220.78375 848.21625 -221.5675 847.4325 -222.375 846.625 C-224.82694679 844.17305321 -226.45670456 842.08659087 -228 839 C-228 838.01 -228 837.02 -228 836 C-228.66 836 -229.32 836 -230 836 C-230.33 835.01 -230.66 834.02 -231 833 C-231.66 832.67 -232.32 832.34 -233 832 C-233.6328125 829.93359375 -233.6328125 829.93359375 -234.125 827.4375 C-234.29257812 826.61121094 -234.46015625 825.78492188 -234.6328125 824.93359375 C-234.75398438 824.29550781 -234.87515625 823.65742187 -235 823 C-235.66 823 -236.32 823 -237 823 C-237 822.34 -237 821.68 -237 821 C-237.66 821 -238.32 821 -239 821 C-239.19335938 820.26394531 -239.38671875 819.52789063 -239.5859375 818.76953125 C-239.84632813 817.79371094 -240.10671875 816.81789063 -240.375 815.8125 C-240.63023437 814.84957031 -240.88546875 813.88664063 -241.1484375 812.89453125 C-241.94035832 810.00949445 -241.94035832 810.00949445 -243.09375 807.375 C-244.3063927 804.19703981 -244.13208242 801.3681016 -244 798 C-244.66 798 -245.32 798 -246 798 C-247.11473469 790.84269551 -247.14870515 783.7965218 -247.125 776.5625 C-247.12886719 775.38623047 -247.13273437 774.20996094 -247.13671875 772.99804688 C-247.12954368 766.57995091 -246.85727454 760.3615214 -246 754 C-245.34 754 -244.68 754 -244 754 C-243.67 750.7 -243.34 747.4 -243 744 C-242.34 744 -241.68 744 -241 744 C-240.93941406 743.38511719 -240.87882812 742.77023437 -240.81640625 742.13671875 C-240.73261719 741.32847656 -240.64882813 740.52023437 -240.5625 739.6875 C-240.48128906 738.88699219 -240.40007812 738.08648438 -240.31640625 737.26171875 C-240 735 -240 735 -239 732 C-238.34 732 -237.68 732 -237 732 C-237 731.01 -237 730.02 -237 729 C-236.34 729 -235.68 729 -235 729 C-234.34 726.03 -233.68 723.06 -233 720 C-232.34 720 -231.68 720 -231 720 C-230.896875 719.443125 -230.79375 718.88625 -230.6875 718.3125 C-229.85821592 715.5230899 -228.65700944 713.3860936 -227 711 C-226.34 711 -225.68 711 -225 711 C-224.87625 710.4225 -224.7525 709.845 -224.625 709.25 C-223.44440627 704.99986258 -221.75750128 702.5107431 -218.375 699.6875 C-217.66859375 699.09195313 -216.9621875 698.49640625 -216.234375 697.8828125 C-215.49703125 697.26148438 -214.7596875 696.64015625 -214 696 C-211.88443836 694.09895335 -209.77146074 692.19524828 -207.6640625 690.28515625 C-206 689 -206 689 -204 689 C-204 688.01 -204 687.02 -204 686 C-203.01 686 -202.02 686 -201 686 C-200.67 685.01 -200.34 684.02 -200 683 C-199.34 683 -198.68 683 -198 683 C-198 682.34 -198 681.68 -198 681 C-197.195625 680.71125 -196.39125 680.4225 -195.5625 680.125 C-192.8673532 679.26737432 -192.8673532 679.26737432 -192 677 C-188.12160643 674.14824002 -184.75032037 673.46571768 -180 673 C-180 672.34 -180 671.68 -180 671 C-178.02 671 -176.04 671 -174 671 C-174 670.34 -174 669.68 -174 669 C-171.69 668.67 -169.38 668.34 -167 668 C-167 667.34 -167 666.68 -167 666 C-165.02 665.67 -163.04 665.34 -161 665 C-161 664.34 -161 663.68 -161 663 C-159.43883181 662.66048381 -157.87598662 662.32867456 -156.3125 662 C-155.44238281 661.814375 -154.57226562 661.62875 -153.67578125 661.4375 C-151.06287036 661.01027953 -148.64186962 660.92383799 -146 661 C-146 660.34 -146 659.68 -146 659 C-142.32589215 657.82428549 -138.83070817 657.92633254 -135 658 C-135 657.34 -135 656.68 -135 656 C-130.59085217 654.89771304 -126.51617599 654.92345464 -122 655 C-122 654.34 -122 653.68 -122 653 C-117.59085217 651.89771304 -113.51617599 651.92345464 -109 652 C-109 651.34 -109 650.68 -109 650 C-101.90294338 648.65504172 -95.2274605 647.75908465 -88 648 C-88 647.34 -88 646.68 -88 646 C-83.71 645.67 -79.42 645.34 -75 645 C-75 644.34 -75 643.68 -75 643 C-66.91191011 641.39385449 -59.2425317 640.73694048 -51 641 C-51 640.34 -51 639.68 -51 639 C-48.36 638.34 -45.72 637.68 -43 637 C-43 636.34 -43 635.68 -43 635 C-41.02 634.67 -39.04 634.34 -37 634 C-36.67 633.01 -36.34 632.02 -36 631 C-35.01 631 -34.02 631 -33 631 C-32.67 630.01 -32.34 629.02 -32 628 C-31.34 628 -30.68 628 -30 628 C-29.7525 627.21625 -29.505 626.4325 -29.25 625.625 C-28 623 -28 623 -25.96875 622.15625 C-24.99421875 621.58390625 -24.99421875 621.58390625 -24 621 C-23.29823412 618.58320293 -23.29823412 618.58320293 -23.25 615.875 C-23.19328125 614.96492187 -23.1365625 614.05484375 -23.078125 613.1171875 C-23.05234375 612.41851563 -23.0265625 611.71984375 -23 611 C-22.34 611 -21.68 611 -21 611 C-21 493.52 -21 376.04 -21 255 C-21.66 255 -22.32 255 -23 255 C-23.33 253.02 -23.66 251.04 -24 249 C-24.66 249 -25.32 249 -26 249 C-26 248.34 -26 247.68 -26 247 C-27.32 246.67 -28.64 246.34 -30 246 C-30 245.34 -30 244.68 -30 244 C-40.23 244 -50.46 244 -61 244 C-61 244.66 -61 245.32 -61 246 C-66.28 246.33 -71.56 246.66 -77 247 C-77 247.66 -77 248.32 -77 249 C-80.96 249 -84.92 249 -89 249 C-89 249.66 -89 250.32 -89 251 C-94.28 251.33 -99.56 251.66 -105 252 C-105 252.66 -105 253.32 -105 254 C-112.41148455 255.28297723 -119.47280398 256.25515919 -127 256 C-127 256.66 -127 257.32 -127 258 C-131.29 258.33 -135.58 258.66 -140 259 C-140 259.66 -140 260.32 -140 261 C-144.29 261.33 -148.58 261.66 -153 262 C-153 262.66 -153 263.32 -153 264 C-158.38490641 264.91657981 -163.54230189 265.11138159 -169 265 C-169 265.66 -169 266.32 -169 267 C-182.6332574 269.29612756 -182.6332574 269.29612756 -189 269 C-189 269.66 -189 270.32 -189 271 C-193.76307437 271.95261487 -198.1666528 272.08333357 -203 272 C-203 272.66 -203 273.32 -203 274 C-207.67201205 275.20568053 -212.21496292 275.09382426 -217 275 C-217 275.66 -217 276.32 -217 277 C-217.84296631 277.11593506 -218.68593262 277.23187012 -219.55444336 277.35131836 C-222.67275901 277.78221054 -225.79052314 278.21684442 -228.90795898 278.65405273 C-230.2589858 278.84273818 -231.61022386 279.02991738 -232.96166992 279.21557617 C-234.90077317 279.48222953 -236.8390741 279.75469712 -238.77734375 280.02734375 C-239.94515381 280.18968506 -241.11296387 280.35202637 -242.31616211 280.51928711 C-244.91068308 280.72022932 -244.91068308 280.72022932 -246 282 C-248.18292774 282.23481693 -250.37203174 282.41363323 -252.5625 282.5625 C-253.76003906 282.64628906 -254.95757813 282.73007812 -256.19140625 282.81640625 C-257.11824219 282.87699219 -258.04507812 282.93757813 -259 283 C-259 283.66 -259 284.32 -259 285 C-263.29 285.33 -267.58 285.66 -272 286 C-272 286.66 -272 287.32 -272 288 C-276.62 288.33 -281.24 288.66 -286 289 C-286 289.66 -286 290.32 -286 291 C-290.29 291.33 -294.58 291.66 -299 292 C-299 292.66 -299 293.32 -299 294 C-301.52019972 294.33885038 -304.04098516 294.67120335 -306.5625 295 C-307.61920898 295.14308594 -307.61920898 295.14308594 -308.69726562 295.2890625 C-313.17367855 295.86666417 -317.48661238 296.09489383 -322 296 C-322 296.66 -322 297.32 -322 298 C-326.62 298.33 -331.24 298.66 -336 299 C-336 299.66 -336 300.32 -336 301 C-337.01320313 301.12117188 -338.02640625 301.24234375 -339.0703125 301.3671875 C-340.4219151 301.53613783 -341.77347542 301.70542669 -343.125 301.875 C-343.79015625 301.95363281 -344.4553125 302.03226562 -345.140625 302.11328125 C-349.31740834 302.64561638 -353.02740278 303.64570549 -357 305 C-359.33212027 305.07522969 -361.6685311 305.09325876 -364 305 C-364 305.66 -364 306.32 -364 307 C-367.31092101 307.51083558 -370.62393479 308.00663214 -373.9375 308.5 C-374.86369141 308.64308594 -375.78988281 308.78617187 -376.74414062 308.93359375 C-382.56683571 309.79167513 -388.11474367 310.14486785 -394 310 C-394 310.66 -394 311.32 -394 312 C-395.28777344 312.20496094 -396.57554687 312.40992188 -397.90234375 312.62109375 C-399.58076363 312.89301652 -401.2591472 313.16516351 -402.9375 313.4375 C-403.78763672 313.57220703 -404.63777344 313.70691406 -405.51367188 313.84570312 C-406.72700195 314.04389648 -406.72700195 314.04389648 -407.96484375 314.24609375 C-408.7137085 314.36654053 -409.46257324 314.4869873 -410.23413086 314.61108398 C-412.0170885 314.83759904 -412.0170885 314.83759904 -413 316 C-415.34987262 316.23527773 -417.70556039 316.41386417 -420.0625 316.5625 C-421.99802734 316.68818359 -421.99802734 316.68818359 -423.97265625 316.81640625 C-424.97167969 316.87699219 -425.97070312 316.93757813 -427 317 C-427 317.66 -427 318.32 -427 319 C-430.63 319.33 -434.26 319.66 -438 320 C-438 320.66 -438 321.32 -438 322 C-438.639375 322.12375 -439.27875 322.2475 -439.9375 322.375 C-440.9584375 322.684375 -440.9584375 322.684375 -442 323 C-442.33 323.66 -442.66 324.32 -443 325 C-445.5625 325.625 -445.5625 325.625 -448 326 C-448 326.66 -448 327.32 -448 328 C-448.97850195 329.02104551 -449.97980427 330.0206121 -451 331 C-451.33 331.66 -451.66 332.32 -452 333 C-452.66 333 -453.32 333 -454 333 C-454.33 336.3 -454.66 339.6 -455 343 C-455.66 343 -456.32 343 -457 343 C-456.99962028 344.05787749 -456.99924056 345.11575498 -456.99884933 346.20568937 C-456.98217199 392.85164878 -456.96674539 439.49760839 -456.95765686 486.14356995 C-456.9575188 486.85032096 -456.95738075 487.55707197 -456.95723851 488.28523968 C-456.95424525 503.64668354 -456.95147512 519.00812742 -456.94893467 534.36957135 C-456.94768739 541.90336333 -456.94639083 549.4371553 -456.94506836 556.97094727 C-456.9449376 557.72063024 -456.94480684 558.47031321 -456.94467212 559.24271384 C-456.94041456 583.52029898 -456.93290609 607.79788178 -456.92370278 632.0754655 C-456.91425849 657.0342114 -456.90811184 681.99295601 -456.90608501 706.95170367 C-456.90579688 710.48098159 -456.90547124 714.01025951 -456.90512276 717.53953743 C-456.90505533 718.23411593 -456.90498791 718.92869443 -456.90491844 719.64432077 C-456.90373902 730.80268216 -456.89910716 741.96103954 -456.89316797 753.1193993 C-456.88726412 764.35089406 -456.88511684 775.58238494 -456.88649862 786.81388157 C-456.88713806 792.89381721 -456.88616912 798.97374115 -456.88079453 805.0536747 C-456.87590247 810.62866111 -456.87569922 816.20362802 -456.87910111 821.77861536 C-456.87952111 823.78698029 -456.87827459 825.79534647 -456.87511682 827.80370896 C-456.85769588 839.57569004 -457.15338092 851.25693089 -458 863 C-458.66 863 -459.32 863 -460 863 C-460.06058594 864.02480469 -460.12117188 865.04960938 -460.18359375 866.10546875 C-460.26805026 867.46615695 -460.35269567 868.82683343 -460.4375 870.1875 C-460.47681641 870.86103516 -460.51613281 871.53457031 -460.55664062 872.22851562 C-460.78927565 875.89699102 -461.17207011 879.41694206 -462 883 C-462.66 883 -463.32 883 -464 883 C-464.04898437 883.64066406 -464.09796875 884.28132812 -464.1484375 884.94140625 C-464.6040145 890.21196085 -465.3597379 894.96986288 -467 900 C-467.66 900 -468.32 900 -469 900 C-469 901.32 -469 902.64 -469 904 C-469.66 904 -470.32 904 -471 904 C-471.33 905.98 -471.66 907.96 -472 910 C-472.66 910 -473.32 910 -474 910 C-474.144375 910.763125 -474.28875 911.52625 -474.4375 912.3125 C-475 915 -475 915 -476 918 C-476.66 918.33 -477.32 918.66 -478 919 C-479.04808041 920.97522846 -480.0520411 922.97481509 -481 925 C-481.99 925 -482.98 925 -484 925 C-484.1546875 926.3921875 -484.1546875 926.3921875 -484.3125 927.8125 C-485.03244329 931.1504189 -485.54453438 931.85146758 -488 934 C-488.33 934.99 -488.66 935.98 -489 937 C-490.64639965 938.35827971 -492.31295807 939.69254251 -494 941 C-494.33 941.66 -494.66 942.32 -495 943 C-495.66 943 -496.32 943 -497 943 C-497 943.66 -497 944.32 -497 945 C-498.63604196 946.37073786 -500.30678061 947.70055256 -502 949 C-503.90253269 950.8232605 -505.62635414 952.70876916 -507.375 954.6875 C-510 957 -510 957 -512.8125 957.3125 C-513.534375 957.209375 -514.25625 957.10625 -515 957 C-515 957.99 -515 958.98 -515 960 C-517.64738916 961.4606285 -518.89448334 962 -522 962 C-522.33 962.99 -522.66 963.98 -523 965 C-523.99 965 -524.98 965 -526 965 C-526 965.66 -526 966.32 -526 967 C-527.65 967.33 -529.3 967.66 -531 968 C-531 968.66 -531 969.32 -531 970 C-533.64 970.33 -536.28 970.66 -539 971 C-539 971.66 -539 972.32 -539 973 C-540.5811292 973.50692692 -542.16501383 974.00526443 -543.75 974.5 C-545.07257813 974.91765625 -545.07257813 974.91765625 -546.421875 975.34375 C-549 976 -549 976 -553 976 C-553 976.66 -553 977.32 -553 978 C-556.63 978.33 -560.26 978.66 -564 979 C-564 979.66 -564 980.32 -564 981 C-567.67410785 982.17571451 -571.16929183 982.07366746 -575 982 C-575 982.66 -575 983.32 -575 984 C-575.81267334 984.08564209 -576.62534668 984.17128418 -577.46264648 984.25952148 C-581.12142841 984.64764956 -584.77945574 985.04248266 -588.4375 985.4375 C-589.71689453 985.57220703 -590.99628906 985.70691406 -592.31445312 985.84570312 C-593.52939453 985.97783203 -594.74433594 986.10996094 -595.99609375 986.24609375 C-597.12200928 986.36654053 -598.2479248 986.4869873 -599.40795898 986.61108398 C-601.92419872 986.72607948 -601.92419872 986.72607948 -603 988 C-606.08172886 988.10136637 -609.14054842 988.13966606 -612.22265625 988.1328125 C-613.62371864 988.13424759 -613.62371864 988.13424759 -615.05308533 988.13571167 C-617.03791369 988.13639404 -619.02274425 988.13453584 -621.00756836 988.13037109 C-624.02528008 988.12506544 -627.04284008 988.13029231 -630.06054688 988.13671875 C-631.98958366 988.13605716 -633.91862035 988.13477432 -635.84765625 988.1328125 C-637.19187401 988.13584885 -637.19187401 988.13584885 -638.56324768 988.13894653 C-643.79831221 988.11969262 -648.81866683 987.7569971 -654 987 C-654 986.34 -654 985.68 -654 985 C-657.3 984.67 -660.6 984.34 -664 984 C-664 983.34 -664 982.68 -664 982 C-666.31 981.67 -668.62 981.34 -671 981 C-671 980.34 -671 979.68 -671 979 C-671.66 978.9175 -672.32 978.835 -673 978.75 C-676.34198743 977.91450314 -679.01638312 976.56345305 -682.03515625 974.9375 C-683.98173039 973.915461 -683.98173039 973.915461 -686.1875 973.53125 C-687.0846875 973.26828125 -687.0846875 973.26828125 -688 973 C-688.309375 972.175 -688.61875 971.35 -688.9375 970.5 C-689.288125 969.675 -689.63875 968.85 -690 968 C-692.54775306 967.10613836 -692.54775306 967.10613836 -695 967 C-695 966.34 -695 965.68 -695 965 C-695.5775 964.938125 -696.155 964.87625 -696.75 964.8125 C-699.88778826 963.6794098 -701.01689011 961.62282275 -703 959 C-703.99 958.34 -704.98 957.68 -706 957 C-706 956.34 -706 955.68 -706 955 C-706.66 955 -707.32 955 -708 955 C-709.5078125 953.57421875 -709.5078125 953.57421875 -711.125 951.6875 C-711.66382813 951.07261719 -712.20265625 950.45773437 -712.7578125 949.82421875 C-714 948 -714 948 -714 945 C-714.763125 944.773125 -715.52625 944.54625 -716.3125 944.3125 C-719.61208893 942.70107285 -720.43956823 941.27690673 -722 938 C-722.6875 935.6875 -722.6875 935.6875 -723 934 C-723.66 934 -724.32 934 -725 934 C-725.99 929.545 -725.99 929.545 -727 925 C-727.66 925 -728.32 925 -729 925 C-729.33 923.35 -729.66 921.7 -730 920 C-730.66 920 -731.32 920 -732 920 C-732.33 917.36 -732.66 914.72 -733 912 C-733.66 912 -734.32 912 -735 912 C-735.98248524 907.9472484 -736.08159574 904.16138263 -736 900 C-736.66 900 -737.32 900 -738 900 C-738 883.17 -738 866.34 -738 849 C-737.34 849 -736.68 849 -736 849 C-735.67 845.7 -735.34 842.4 -735 839 C-734.34 839 -733.68 839 -733 839 C-732.67 836.03 -732.34 833.06 -732 830 C-731.34 830 -730.68 830 -730 830 C-729.505 827.525 -729.505 827.525 -729 825 C-728.34 825 -727.68 825 -727 825 C-726.34 822.69 -725.68 820.38 -725 818 C-724.34 818 -723.68 818 -723 818 C-722.67 816.68 -722.34 815.36 -722 814 C-721.34 814 -720.68 814 -720 814 C-719.67 812.02 -719.34 810.04 -719 808 C-718.34 808 -717.68 808 -717 808 C-716.67 807.01 -716.34 806.02 -716 805 C-715.34 805 -714.68 805 -714 805 C-713.731875 804.195625 -713.46375 803.39125 -713.1875 802.5625 C-712.795625 801.716875 -712.40375 800.87125 -712 800 C-711.01 799.67 -710.02 799.34 -709 799 C-709 798.01 -709 797.02 -709 796 C-707.3203125 794.24609375 -707.3203125 794.24609375 -705.125 792.4375 C-704.40570312 791.83808594 -703.68640625 791.23867188 -702.9453125 790.62109375 C-702.30335938 790.08613281 -701.66140625 789.55117188 -701 789 C-700.34 788.34 -699.68 787.68 -699 787 C-698.01 787 -697.02 787 -696 787 C-695.67 786.01 -695.34 785.02 -695 784 C-694.34 784 -693.68 784 -693 784 C-693 783.34 -693 782.68 -693 782 C-692.01 781.67 -691.02 781.34 -690 781 C-689.67 780.34 -689.34 779.68 -689 779 C-685.65489648 777.37265234 -683.81164166 777 -680 777 C-679.67 776.01 -679.34 775.02 -679 774 C-678.34 774 -677.68 774 -677 774 C-677 773.34 -677 772.68 -677 772 C-675.7934375 771.814375 -675.7934375 771.814375 -674.5625 771.625 C-673.716875 771.41875 -672.87125 771.2125 -672 771 C-671.67 770.34 -671.34 769.68 -671 769 C-665.67658099 766.73261783 -660.26643115 765.22317495 -654.67578125 763.76171875 C-652.26447829 763.07528944 -650.00675932 762.25705494 -647.6875 761.3125 C-644.14912965 760.05308004 -641.71078199 759.72169135 -638 760 C-638 759.34 -638 758.68 -638 758 C-632.39 757.34 -626.78 756.68 -621 756 C-621 755.34 -621 754.68 -621 754 C-616.71 753.67 -612.42 753.34 -608 753 C-608 752.34 -608 751.68 -608 751 C-603.71 750.67 -599.42 750.34 -595 750 C-595 749.34 -595 748.68 -595 748 C-590.71 747.67 -586.42 747.34 -582 747 C-582 746.34 -582 745.68 -582 745 C-576.72 744.67 -571.44 744.34 -566 744 C-566 743.34 -566 742.68 -566 742 C-552.3667426 739.70387244 -552.3667426 739.70387244 -546 740 C-546 739.34 -546 738.68 -546 738 C-543.03 737.67 -540.06 737.34 -537 737 C-536.67 736.01 -536.34 735.02 -536 734 C-535.01 734 -534.02 734 -533 734 C-533 733.34 -533 732.68 -533 732 C-531.02 732 -529.04 732 -527 732 C-527 731.01 -527 730.02 -527 729 C-526.34 729 -525.68 729 -525 729 C-524.938125 728.278125 -524.87625 727.55625 -524.8125 726.8125 C-523.75482086 723.15130298 -521.72833857 721.59192164 -519 719 C-518.67 718.01 -518.34 717.02 -518 716 C-517.34 716 -516.68 716 -516 716 C-515.67 713.36 -515.34 710.72 -515 708 C-514.34 708 -513.68 708 -513 708 C-513.00037972 706.80615838 -513.00075944 705.61231675 -513.00115067 704.38229811 C-513.01781949 651.7686499 -513.03324729 599.15500145 -513.04234314 546.54135132 C-513.04255023 545.346555 -513.04255023 545.346555 -513.04276149 544.12762138 C-513.04575439 526.81691039 -513.04852458 509.50619937 -513.05106533 492.19548831 C-513.05231267 483.70633465 -513.05360922 475.21718099 -513.05493164 466.72802734 C-513.0550624 465.88325397 -513.05519316 465.0384806 -513.05532788 464.16810803 C-513.05958932 436.78598058 -513.0671007 409.4038552 -513.07629722 382.02172901 C-513.08573058 353.88332517 -513.09188562 325.74492247 -513.09391499 297.60651708 C-513.09420315 293.63227415 -513.09452878 289.65803122 -513.09487724 285.6837883 C-513.09497838 284.51050489 -513.09497838 284.51050489 -513.09508156 283.31351878 C-513.09626333 270.72183213 -513.10090154 258.13014901 -513.10683203 245.53846381 C-513.11272025 232.87994579 -513.11496773 220.22143128 -513.11350138 207.56291194 C-513.1128077 200.70411682 -513.11372305 193.84533116 -513.11920547 186.98653793 C-513.12406693 180.70814103 -513.12432051 174.42976147 -513.12089889 168.15136378 C-513.12047591 165.87932974 -513.12174846 163.60729464 -513.12488318 161.33526273 C-513.12889678 158.24679065 -513.12673245 155.15838118 -513.12304783 152.06991005 C-513.12698835 150.74722597 -513.12698835 150.74722597 -513.13100848 149.39782101 C-513.11523745 143.54648162 -512.67959359 137.81101224 -512 132 C-511.34 132 -510.68 132 -510 132 C-509.93941406 131.31292969 -509.87882813 130.62585938 -509.81640625 129.91796875 C-509.73261719 129.01691406 -509.64882813 128.11585938 -509.5625 127.1875 C-509.48128906 126.29417969 -509.40007812 125.40085937 -509.31640625 124.48046875 C-509 122 -509 122 -508 119 C-507.01 119 -506.02 119 -505 119 C-505 117.68 -505 116.36 -505 115 C-504.34 115 -503.68 115 -503 115 C-502.89558594 114.40703125 -502.79117188 113.8140625 -502.68359375 113.203125 C-501.8994359 110.67589628 -500.94945476 109.5769782 -499.0625 107.75 C-498.53785156 107.22921875 -498.01320313 106.7084375 -497.47265625 106.171875 C-496 105 -496 105 -494 105 C-494 104.34 -494 103.68 -494 103 C-491.525 102.505 -491.525 102.505 -489 102 C-489 101.34 -489 100.68 -489 100 C-486.525 99.505 -486.525 99.505 -484 99 C-484 98.34 -484 97.68 -484 97 C-481.03 97 -478.06 97 -475 97 C-475 96.34 -475 95.68 -475 95 C-469.06 94.505 -469.06 94.505 -463 94 C-463 93.34 -463 92.68 -463 92 C-460.62561751 91.6616656 -458.25065041 91.32920998 -455.875 91 C-455.20984375 90.90460938 -454.5446875 90.80921875 -453.859375 90.7109375 C-449.87371019 90.16388547 -446.02140062 89.89977818 -442 90 C-442 89.34 -442 88.68 -442 88 C-437.05 87.67 -432.1 87.34 -427 87 C-427 86.34 -427 85.68 -427 85 C-422.71 84.67 -418.42 84.34 -414 84 C-414 83.34 -414 82.68 -414 82 C-409.05 81.67 -404.1 81.34 -399 81 C-399 80.34 -399 79.68 -399 79 C-391.58851545 77.71702277 -384.52719602 76.74484081 -377 77 C-377 76.34 -377 75.68 -377 75 C-372.32798795 73.79431947 -367.78503708 73.90617574 -363 74 C-363 73.34 -363 72.68 -363 72 C-358.71 71.67 -354.42 71.34 -350 71 C-350 70.34 -350 69.68 -350 69 C-329.46808511 65.42553191 -329.46808511 65.42553191 -320 66 C-320 65.34 -320 64.68 -320 64 C-315.9472484 63.01751476 -312.16138263 62.91840426 -308 63 C-308 62.34 -308 61.68 -308 61 C-303.38 60.67 -298.76 60.34 -294 60 C-294 59.34 -294 58.68 -294 58 C-289.38 57.67 -284.76 57.34 -280 57 C-280 56.34 -280 55.68 -280 55 C-277.62561751 54.6616656 -275.25065041 54.32920998 -272.875 54 C-272.20984375 53.90460938 -271.5446875 53.80921875 -270.859375 53.7109375 C-266.87371019 53.16388547 -263.02140062 52.89977818 -259 53 C-259 52.34 -259 51.68 -259 51 C-253.91913204 50.15318867 -249.15171623 49.90961901 -244 50 C-244 49.34 -244 48.68 -244 48 C-239.23692563 47.04738513 -234.8333472 46.91666643 -230 47 C-230 46.34 -230 45.68 -230 45 C-225.71 44.67 -221.42 44.34 -217 44 C-217 43.34 -217 42.68 -217 42 C-212.38 41.67 -207.76 41.34 -203 41 C-203 40.34 -203 39.68 -203 39 C-201.50146484 38.80083984 -201.50146484 38.80083984 -199.97265625 38.59765625 C-198.68230469 38.42105469 -197.39195312 38.24445313 -196.0625 38.0625 C-194.77472656 37.88847656 -193.48695313 37.71445313 -192.16015625 37.53515625 C-189.14533687 37.33837577 -189.14533687 37.33837577 -188 36 C-184.63890715 35.67473295 -181.2766601 35.4864054 -177.90625 35.28125 C-175.10949868 35.3214011 -175.10949868 35.3214011 -174 34 C-171.81707226 33.76518307 -169.62796826 33.58636677 -167.4375 33.4375 C-166.23996094 33.35371094 -165.04242187 33.26992187 -163.80859375 33.18359375 C-162.88175781 33.12300781 -161.95492187 33.06242187 -161 33 C-161 32.34 -161 31.68 -161 31 C-153.58851545 29.71702277 -146.52719602 28.74484081 -139 29 C-139 28.34 -139 27.68 -139 27 C-136.69 27 -134.38 27 -132 27 C-132 26.34 -132 25.68 -132 25 C-124.94546999 23.79556805 -118.16562789 22.71899498 -111 23 C-111 22.34 -111 21.68 -111 21 C-106.38 20.67 -101.76 20.34 -97 20 C-97 19.34 -97 18.68 -97 18 C-92.71 17.67 -88.42 17.34 -84 17 C-84 16.34 -84 15.68 -84 15 C-81.81347261 14.66034526 -79.62571975 14.32857523 -77.4375 14 C-75.61025391 13.7215625 -75.61025391 13.7215625 -73.74609375 13.4375 C-70.12372152 13.01444923 -66.64287954 12.92498575 -63 13 C-63 12.34 -63 11.68 -63 11 C-58.05 10.67 -53.1 10.34 -48 10 C-48 9.34 -48 8.68 -48 8 C-40.58856436 6.57374434 -33.55137932 5.69928135 -26 6 C-26 5.34 -26 4.68 -26 4 C-8.14350797 1.70387244 -8.14350797 1.70387244 0 2 C0 1.34 0 0.68 0 0 Z " fill="#EC1C24" transform="translate(946,136)"/>
<path d="M0 0 C238.92 0 477.84 0 724 0 C724 0.33 724 0.66 724 1 C485.08 1 246.16 1 0 1 C0 0.67 0 0.34 0 0 Z " fill="#000000" transform="translate(278,1274)"/>
<path d="M0 0 C0.33 0 0.66 0 1 0 C1 238.92 1 477.84 1 724 C0.67 724 0.34 724 0 724 C0 485.08 0 246.16 0 0 Z " fill="#000000" transform="translate(1274,278)"/>
<path d="M0 0 C0.33 0 0.66 0 1 0 C1 238.92 1 477.84 1 724 C0.67 724 0.34 724 0 724 C0 485.08 0 246.16 0 0 Z " fill="#000000" transform="translate(5,278)"/>
<path d="M0 0 C238.92 0 477.84 0 724 0 C724 0.33 724 0.66 724 1 C485.08 1 246.16 1 0 1 C0 0.67 0 0.34 0 0 Z " fill="#000000" transform="translate(278,5)"/>
<path d="M0 0 C0 0.33 0 0.66 0 1 C-6.88002171 3.62096065 -13.72176039 3.18170362 -21 3 C-21 2.34 -21 1.68 -21 1 C-13.98441385 0.4011085 -7.04321257 -0.13810221 0 0 Z " fill="#D81E24" transform="translate(779,171)"/>
<path d="M0 0 C0.33 0.66 0.66 1.32 1 2 C-0.375 4 -0.375 4 -2 6 C-2.66 6 -3.32 6 -4 6 C-4 6.66 -4 7.32 -4 8 C-4.66 8 -5.32 8 -6 8 C-6 5 -6 5 -4.6875 3.61328125 C-3.125 2.40885417 -1.5625 1.20442708 0 0 Z " fill="#D51F23" transform="translate(730,834)"/>
<path d="M0 0 C5.94 0 11.88 0 18 0 C18 0.33 18 0.66 18 1 C12.06 1 6.12 1 0 1 C0 0.67 0 0.34 0 0 Z " fill="#000000" transform="translate(1002,1273)"/>
<path d="M0 0 C5.94 0 11.88 0 18 0 C18 0.33 18 0.66 18 1 C12.06 1 6.12 1 0 1 C0 0.67 0 0.34 0 0 Z " fill="#000000" transform="translate(260,1273)"/>
<path d="M0 0 C0.33 0 0.66 0 1 0 C1 5.94 1 11.88 1 18 C0.67 18 0.34 18 0 18 C0 12.06 0 6.12 0 0 Z " fill="#000000" transform="translate(6,1003)"/>
<path d="M0 0 C0.33 0 0.66 0 1 0 C1 5.94 1 11.88 1 18 C0.67 18 0.34 18 0 18 C0 12.06 0 6.12 0 0 Z " fill="#000000" transform="translate(1273,1002)"/>
<path d="M0 0 C0.33 0 0.66 0 1 0 C1 5.94 1 11.88 1 18 C0.67 18 0.34 18 0 18 C0 12.06 0 6.12 0 0 Z " fill="#000000" transform="translate(1273,260)"/>
<path d="M0 0 C0.33 0 0.66 0 1 0 C1 5.94 1 11.88 1 18 C0.67 18 0.34 18 0 18 C0 12.06 0 6.12 0 0 Z " fill="#000000" transform="translate(6,259)"/>
<path d="M0 0 C5.94 0 11.88 0 18 0 C18 0.33 18 0.66 18 1 C12.06 1 6.12 1 0 1 C0 0.67 0 0.34 0 0 Z " fill="#000000" transform="translate(1002,6)"/>
<path d="M0 0 C5.94 0 11.88 0 18 0 C18 0.33 18 0.66 18 1 C12.06 1 6.12 1 0 1 C0 0.67 0 0.34 0 0 Z " fill="#000000" transform="translate(260,6)"/>
<path d="M0 0 C2.97 0 5.94 0 9 0 C9 0.33 9 0.66 9 1 C6.03 1 3.06 1 0 1 C0 0.67 0 0.34 0 0 Z " fill="#000000" transform="translate(1027,1271)"/>
<path d="M0 0 C2.97 0 5.94 0 9 0 C9 0.33 9 0.66 9 1 C6.03 1 3.06 1 0 1 C0 0.67 0 0.34 0 0 Z " fill="#000000" transform="translate(244,1271)"/>
<path d="M0 0 C0.33 0 0.66 0 1 0 C1 2.97 1 5.94 1 9 C0.67 9 0.34 9 0 9 C0 6.03 0 3.06 0 0 Z " fill="#000000" transform="translate(1271,1027)"/>
<path d="M0 0 C0.33 0 0.66 0 1 0 C1 2.97 1 5.94 1 9 C0.67 9 0.34 9 0 9 C0 6.03 0 3.06 0 0 Z " fill="#000000" transform="translate(8,1027)"/>
<path d="M0 0 C0.33 0 0.66 0 1 0 C1 2.97 1 5.94 1 9 C0.67 9 0.34 9 0 9 C0 6.03 0 3.06 0 0 Z " fill="#000000" transform="translate(1271,244)"/>
<path d="M0 0 C0.33 0 0.66 0 1 0 C1 2.97 1 5.94 1 9 C0.67 9 0.34 9 0 9 C0 6.03 0 3.06 0 0 Z " fill="#000000" transform="translate(8,244)"/>
<path d="M0 0 C2.97 0 5.94 0 9 0 C9 0.33 9 0.66 9 1 C6.03 1 3.06 1 0 1 C0 0.67 0 0.34 0 0 Z " fill="#000000" transform="translate(1027,8)"/>
<path d="M0 0 C2.97 0 5.94 0 9 0 C9 0.33 9 0.66 9 1 C6.03 1 3.06 1 0 1 C0 0.67 0 0.34 0 0 Z " fill="#000000" transform="translate(244,8)"/>
<path d="M0 0 C0.66 0.33 1.32 0.66 2 1 C1.01 1.99 0.02 2.98 -1 4 C-1.66 3.67 -2.32 3.34 -3 3 C-2.01 2.01 -1.02 1.02 0 0 Z " fill="#000000" transform="translate(1187,1194)"/>
<path d="M0 0 C3.875 1.75 3.875 1.75 5 4 C1.125 2.25 1.125 2.25 0 0 Z " fill="#000000" transform="translate(91,1194)"/>
<path d="M0 0 C3.875 1.75 3.875 1.75 5 4 C1.125 2.25 1.125 2.25 0 0 Z " fill="#000000" transform="translate(1184,82)"/>
<path d="M0 0 C0.66 0.33 1.32 0.66 2 1 C1.01 1.99 0.02 2.98 -1 4 C-1.66 3.67 -2.32 3.34 -3 3 C-2.01 2.01 -1.02 1.02 0 0 Z " fill="#000000" transform="translate(94,82)"/>
<path d="M0 0 C2.31 0 4.62 0 7 0 C7 0.33 7 0.66 7 1 C4.69 1 2.38 1 0 1 C0 0.67 0 0.34 0 0 Z " fill="#000000" transform="translate(1020,1272)"/>
<path d="M0 0 C2.31 0 4.62 0 7 0 C7 0.33 7 0.66 7 1 C4.69 1 2.38 1 0 1 C0 0.67 0 0.34 0 0 Z " fill="#000000" transform="translate(253,1272)"/>
<path d="M0 0 C0.33 0 0.66 0 1 0 C1 2.31 1 4.62 1 7 C0.67 7 0.34 7 0 7 C0 4.69 0 2.38 0 0 Z " fill="#000000" transform="translate(1272,1020)"/>
<path d="M0 0 C0.33 0 0.66 0 1 0 C1 2.31 1 4.62 1 7 C0.67 7 0.34 7 0 7 C0 4.69 0 2.38 0 0 Z " fill="#000000" transform="translate(1272,253)"/>
<path d="M0 0 C2.31 0 4.62 0 7 0 C7 0.33 7 0.66 7 1 C4.69 1 2.38 1 0 1 C0 0.67 0 0.34 0 0 Z " fill="#000000" transform="translate(1020,7)"/>
<path d="M0 0 C2.31 0 4.62 0 7 0 C7 0.33 7 0.66 7 1 C4.69 1 2.38 1 0 1 C0 0.67 0 0.34 0 0 Z " fill="#000000" transform="translate(253,7)"/>
<path d="M0 0 C0.33 0 0.66 0 1 0 C1 1.98 1 3.96 1 6 C0.67 6 0.34 6 0 6 C0 4.02 0 2.04 0 0 Z " fill="#000000" transform="translate(7,1021)"/>
<path d="M0 0 C0.33 0 0.66 0 1 0 C1 1.98 1 3.96 1 6 C0.67 6 0.34 6 0 6 C0 4.02 0 2.04 0 0 Z " fill="#000000" transform="translate(7,253)"/>
<path d="M0 0 C1.65 0 3.3 0 5 0 C5 0.33 5 0.66 5 1 C3.35 1 1.7 1 0 1 C0 0.67 0 0.34 0 0 Z " fill="#000000" transform="translate(1036,1270)"/>
<path d="M0 0 C1.65 0 3.3 0 5 0 C5 0.33 5 0.66 5 1 C3.35 1 1.7 1 0 1 C0 0.67 0 0.34 0 0 Z " fill="#000000" transform="translate(239,1270)"/>
<path d="M0 0 C1.65 0 3.3 0 5 0 C5 0.33 5 0.66 5 1 C3.35 1 1.7 1 0 1 C0 0.67 0 0.34 0 0 Z " fill="#000000" transform="translate(1042,1269)"/>
<path d="M0 0 C1.65 0 3.3 0 5 0 C5 0.33 5 0.66 5 1 C3.35 1 1.7 1 0 1 C0 0.67 0 0.34 0 0 Z " fill="#000000" transform="translate(233,1269)"/>
<path d="M0 0 C1.65 0 3.3 0 5 0 C5 0.33 5 0.66 5 1 C3.35 1 1.7 1 0 1 C0 0.67 0 0.34 0 0 Z " fill="#000000" transform="translate(1047,1268)"/>
<path d="M0 0 C1.65 0 3.3 0 5 0 C5 0.33 5 0.66 5 1 C3.35 1 1.7 1 0 1 C0 0.67 0 0.34 0 0 Z " fill="#000000" transform="translate(228,1268)"/>
<path d="M0 0 C0.99 0.99 1.98 1.98 3 3 C2.01 2.67 1.02 2.34 0 2 C0 1.34 0 0.68 0 0 Z " fill="#000000" transform="translate(81,1183)"/>
<path d="M0 0 C0 0.99 0 1.98 0 3 C-0.66 2.67 -1.32 2.34 -2 2 C-1.34 1.34 -0.68 0.68 0 0 Z " fill="#000000" transform="translate(1198,1183)"/>
<path d="M0 0 C0.33 0 0.66 0 1 0 C1 1.65 1 3.3 1 5 C0.67 5 0.34 5 0 5 C0 3.35 0 1.7 0 0 Z " fill="#000000" transform="translate(1268,1047)"/>
<path d="M0 0 C0.33 0 0.66 0 1 0 C1 1.65 1 3.3 1 5 C0.67 5 0.34 5 0 5 C0 3.35 0 1.7 0 0 Z " fill="#000000" transform="translate(11,1047)"/>
<path d="M0 0 C0.33 0 0.66 0 1 0 C1 1.65 1 3.3 1 5 C0.67 5 0.34 5 0 5 C0 3.35 0 1.7 0 0 Z " fill="#000000" transform="translate(1269,1042)"/>
<path d="M0 0 C0.33 0 0.66 0 1 0 C1 1.65 1 3.3 1 5 C0.67 5 0.34 5 0 5 C0 3.35 0 1.7 0 0 Z " fill="#000000" transform="translate(10,1042)"/>
<path d="M0 0 C0.33 0 0.66 0 1 0 C1 1.65 1 3.3 1 5 C0.67 5 0.34 5 0 5 C0 3.35 0 1.7 0 0 Z " fill="#000000" transform="translate(1270,1036)"/>
<path d="M0 0 C0.33 0 0.66 0 1 0 C1 1.65 1 3.3 1 5 C0.67 5 0.34 5 0 5 C0 3.35 0 1.7 0 0 Z " fill="#000000" transform="translate(9,1036)"/>
<path d="M0 0 C0.33 0 0.66 0 1 0 C1 1.65 1 3.3 1 5 C0.67 5 0.34 5 0 5 C0 3.35 0 1.7 0 0 Z " fill="#000000" transform="translate(1270,239)"/>
<path d="M0 0 C0.33 0 0.66 0 1 0 C1 1.65 1 3.3 1 5 C0.67 5 0.34 5 0 5 C0 3.35 0 1.7 0 0 Z " fill="#000000" transform="translate(9,239)"/>
<path d="M0 0 C0.33 0 0.66 0 1 0 C1 1.65 1 3.3 1 5 C0.67 5 0.34 5 0 5 C0 3.35 0 1.7 0 0 Z " fill="#000000" transform="translate(1269,233)"/>
<path d="M0 0 C0.33 0 0.66 0 1 0 C1 1.65 1 3.3 1 5 C0.67 5 0.34 5 0 5 C0 3.35 0 1.7 0 0 Z " fill="#000000" transform="translate(10,233)"/>
<path d="M0 0 C0.33 0 0.66 0 1 0 C1 1.65 1 3.3 1 5 C0.67 5 0.34 5 0 5 C0 3.35 0 1.7 0 0 Z " fill="#000000" transform="translate(1268,228)"/>
<path d="M0 0 C0.33 0 0.66 0 1 0 C1 1.65 1 3.3 1 5 C0.67 5 0.34 5 0 5 C0 3.35 0 1.7 0 0 Z " fill="#000000" transform="translate(11,228)"/>
<path d="M0 0 C0.99 0.33 1.98 0.66 3 1 C2.67 1.66 2.34 2.32 2 3 C1.34 2.01 0.68 1.02 0 0 Z " fill="#000000" transform="translate(1196,94)"/>
<path d="M0 0 C0.66 0.33 1.32 0.66 2 1 C1.01 1.66 0.02 2.32 -1 3 C-0.67 2.01 -0.34 1.02 0 0 Z " fill="#000000" transform="translate(82,94)"/>
<path d="M0 0 C1.65 0 3.3 0 5 0 C5 0.33 5 0.66 5 1 C3.35 1 1.7 1 0 1 C0 0.67 0 0.34 0 0 Z " fill="#000000" transform="translate(1047,11)"/>
<path d="M0 0 C1.65 0 3.3 0 5 0 C5 0.33 5 0.66 5 1 C3.35 1 1.7 1 0 1 C0 0.67 0 0.34 0 0 Z " fill="#000000" transform="translate(228,11)"/>
<path d="M0 0 C1.65 0 3.3 0 5 0 C5 0.33 5 0.66 5 1 C3.35 1 1.7 1 0 1 C0 0.67 0 0.34 0 0 Z " fill="#000000" transform="translate(1042,10)"/>
<path d="M0 0 C1.65 0 3.3 0 5 0 C5 0.33 5 0.66 5 1 C3.35 1 1.7 1 0 1 C0 0.67 0 0.34 0 0 Z " fill="#000000" transform="translate(233,10)"/>
<path d="M0 0 C1.65 0 3.3 0 5 0 C5 0.33 5 0.66 5 1 C3.35 1 1.7 1 0 1 C0 0.67 0 0.34 0 0 Z " fill="#000000" transform="translate(1036,9)"/>
<path d="M0 0 C1.65 0 3.3 0 5 0 C5 0.33 5 0.66 5 1 C3.35 1 1.7 1 0 1 C0 0.67 0 0.34 0 0 Z " fill="#000000" transform="translate(239,9)"/>
<path d="M0 0 C4 1 4 1 4 1 Z " fill="#000000" transform="translate(1052,1267)"/>
<path d="M0 0 C4 1 4 1 4 1 Z " fill="#000000" transform="translate(224,1267)"/>
<path d="M0 0 C4 1 4 1 4 1 Z " fill="#000000" transform="translate(1056,1266)"/>
<path d="M0 0 C4 1 4 1 4 1 Z " fill="#000000" transform="translate(220,1266)"/>
<path d="M0 0 C4 1 4 1 4 1 Z " fill="#000000" transform="translate(1064,1264)"/>
<path d="M0 0 C4 1 4 1 4 1 Z " fill="#000000" transform="translate(212,1264)"/>
<path d="M0 0 C4 1 4 1 4 1 Z " fill="#000000" transform="translate(1071,1262)"/>
<path d="M0 0 C4 1 4 1 4 1 Z " fill="#000000" transform="translate(205,1262)"/>
<path d="M0 0 C4 1 4 1 4 1 Z " fill="#000000" transform="translate(1086,1257)"/>
<path d="M0 0 C4 1 4 1 4 1 Z " fill="#000000" transform="translate(190,1257)"/>
<path d="M0 0 C0.66 0.33 1.32 0.66 2 1 C1.01 1 0.02 1 -1 1 C-0.67 0.67 -0.34 0.34 0 0 Z " fill="#000000" transform="translate(1175,1205)"/>
<path d="M0 0 C0.99 0.33 1.98 0.66 3 1 C2.01 1 1.02 1 0 1 C0 0.67 0 0.34 0 0 Z " fill="#000000" transform="translate(103,1205)"/>
<path d="M0 0 C1 4 1 4 1 4 Z " fill="#000000" transform="translate(1262,1071)"/>
<path d="M0 0 C1 4 1 4 1 4 Z " fill="#000000" transform="translate(17,1071)"/>
<path d="M0 0 C1 4 1 4 1 4 Z " fill="#000000" transform="translate(1266,1056)"/>
<path d="M0 0 C1 4 1 4 1 4 Z " fill="#000000" transform="translate(13,1056)"/>
<path d="M0 0 C1 4 1 4 1 4 Z " fill="#000000" transform="translate(1267,1052)"/>
<path d="M0 0 C1 4 1 4 1 4 Z " fill="#000000" transform="translate(12,1052)"/>
<path d="M0 0 C1 4 1 4 1 4 Z " fill="#000000" transform="translate(1267,224)"/>
<path d="M0 0 C1 4 1 4 1 4 Z " fill="#000000" transform="translate(12,224)"/>
<path d="M0 0 C1 4 1 4 1 4 Z " fill="#000000" transform="translate(1266,220)"/>
<path d="M0 0 C1 4 1 4 1 4 Z " fill="#000000" transform="translate(13,220)"/>
<path d="M0 0 C1 4 1 4 1 4 Z " fill="#000000" transform="translate(1262,205)"/>
<path d="M0 0 C1 4 1 4 1 4 Z " fill="#000000" transform="translate(17,205)"/>
<path d="M0 0 C0.99 0.33 1.98 0.66 3 1 C2.01 1 1.02 1 0 1 C0 0.67 0 0.34 0 0 Z " fill="#000000" transform="translate(1174,73)"/>
<path d="M0 0 C0.66 0.33 1.32 0.66 2 1 C1.01 1 0.02 1 -1 1 C-0.67 0.67 -0.34 0.34 0 0 Z " fill="#000000" transform="translate(104,73)"/>
<path d="M0 0 C4 1 4 1 4 1 Z " fill="#000000" transform="translate(1086,22)"/>
<path d="M0 0 C4 1 4 1 4 1 Z " fill="#000000" transform="translate(190,22)"/>
<path d="M0 0 C4 1 4 1 4 1 Z " fill="#000000" transform="translate(1071,17)"/>
<path d="M0 0 C4 1 4 1 4 1 Z " fill="#000000" transform="translate(205,17)"/>
<path d="M0 0 C4 1 4 1 4 1 Z " fill="#000000" transform="translate(1064,15)"/>
<path d="M0 0 C4 1 4 1 4 1 Z " fill="#000000" transform="translate(212,15)"/>
<path d="M0 0 C4 1 4 1 4 1 Z " fill="#000000" transform="translate(1056,13)"/>
<path d="M0 0 C4 1 4 1 4 1 Z " fill="#000000" transform="translate(220,13)"/>
<path d="M0 0 C4 1 4 1 4 1 Z " fill="#000000" transform="translate(1052,12)"/>
<path d="M0 0 C4 1 4 1 4 1 Z " fill="#000000" transform="translate(224,12)"/>
<path d="M0 0 C3 1 3 1 3 1 Z " fill="#000000" transform="translate(1061,1265)"/>
<path d="M0 0 C3 1 3 1 3 1 Z " fill="#000000" transform="translate(216,1265)"/>
<path d="M0 0 C3 1 3 1 3 1 Z " fill="#000000" transform="translate(1068,1263)"/>
<path d="M0 0 C3 1 3 1 3 1 Z " fill="#000000" transform="translate(209,1263)"/>
<path d="M0 0 C3 1 3 1 3 1 Z " fill="#000000" transform="translate(1075,1261)"/>
<path d="M0 0 C3 1 3 1 3 1 Z " fill="#000000" transform="translate(202,1261)"/>
<path d="M0 0 C3 1 3 1 3 1 Z " fill="#000000" transform="translate(1078,1260)"/>
<path d="M0 0 C3 1 3 1 3 1 Z " fill="#000000" transform="translate(199,1260)"/>
<path d="M0 0 C3 1 3 1 3 1 Z " fill="#000000" transform="translate(1081,1259)"/>
<path d="M0 0 C3 1 3 1 3 1 Z " fill="#000000" transform="translate(196,1259)"/>
<path d="M0 0 C3 1 3 1 3 1 Z " fill="#000000" transform="translate(1094,1254)"/>
<path d="M0 0 C3 1 3 1 3 1 Z " fill="#000000" transform="translate(183,1254)"/>
<path d="M0 0 C3 1 3 1 3 1 Z " fill="#000000" transform="translate(1097,1253)"/>
<path d="M0 0 C3 1 3 1 3 1 Z " fill="#000000" transform="translate(180,1253)"/>
<path d="" fill="#000000" transform="translate(0,0)"/>
<path d="" fill="#000000" transform="translate(0,0)"/>
<path d="" fill="#000000" transform="translate(0,0)"/>
<path d="" fill="#000000" transform="translate(0,0)"/>
<path d="" fill="#000000" transform="translate(0,0)"/>
<path d="" fill="#000000" transform="translate(0,0)"/>
<path d="" fill="#000000" transform="translate(0,0)"/>
<path d="" fill="#000000" transform="translate(0,0)"/>
<path d="" fill="#000000" transform="translate(0,0)"/>
<path d="" fill="#000000" transform="translate(0,0)"/>
<path d="" fill="#000000" transform="translate(0,0)"/>
<path d="" fill="#000000" transform="translate(0,0)"/>
<path d="M0 0 C3 1 3 1 3 1 Z " fill="#000000" transform="translate(1097,26)"/>
<path d="M0 0 C3 1 3 1 3 1 Z " fill="#000000" transform="translate(180,26)"/>
<path d="M0 0 C3 1 3 1 3 1 Z " fill="#000000" transform="translate(1094,25)"/>
<path d="M0 0 C3 1 3 1 3 1 Z " fill="#000000" transform="translate(183,25)"/>
<path d="M0 0 C3 1 3 1 3 1 Z " fill="#000000" transform="translate(1081,20)"/>
<path d="M0 0 C3 1 3 1 3 1 Z " fill="#000000" transform="translate(196,20)"/>
<path d="M0 0 C3 1 3 1 3 1 Z " fill="#000000" transform="translate(1078,19)"/>
<path d="M0 0 C3 1 3 1 3 1 Z " fill="#000000" transform="translate(199,19)"/>
<path d="M0 0 C3 1 3 1 3 1 Z " fill="#000000" transform="translate(1075,18)"/>
<path d="M0 0 C3 1 3 1 3 1 Z " fill="#000000" transform="translate(202,18)"/>
<path d="M0 0 C3 1 3 1 3 1 Z " fill="#000000" transform="translate(1068,16)"/>
<path d="M0 0 C3 1 3 1 3 1 Z " fill="#000000" transform="translate(209,16)"/>
<path d="M0 0 C3 1 3 1 3 1 Z " fill="#000000" transform="translate(1061,14)"/>
<path d="M0 0 C3 1 3 1 3 1 Z " fill="#000000" transform="translate(216,14)"/>
<path d="M0 0 C2 1 2 1 2 1 Z " fill="#000000" transform="translate(1084,1258)"/>
<path d="M0 0 C2 1 2 1 2 1 Z " fill="#000000" transform="translate(194,1258)"/>
<path d="M0 0 C2 1 2 1 2 1 Z " fill="#000000" transform="translate(1090,1256)"/>
<path d="M0 0 C2 1 2 1 2 1 Z " fill="#000000" transform="translate(188,1256)"/>
<path d="M0 0 C2 1 2 1 2 1 Z " fill="#000000" transform="translate(1092,1255)"/>
<path d="M0 0 C2 1 2 1 2 1 Z " fill="#000000" transform="translate(186,1255)"/>
<path d="M0 0 C2 1 2 1 2 1 Z " fill="#000000" transform="translate(1100,1252)"/>
<path d="M0 0 C2 1 2 1 2 1 Z " fill="#000000" transform="translate(178,1252)"/>
<path d="M0 0 C2 1 2 1 2 1 Z " fill="#000000" transform="translate(1102,1251)"/>
<path d="M0 0 C2 1 2 1 2 1 Z " fill="#000000" transform="translate(176,1251)"/>
<path d="M0 0 C2 1 2 1 2 1 Z " fill="#000000" transform="translate(1104,1250)"/>
<path d="M0 0 C2 1 2 1 2 1 Z " fill="#000000" transform="translate(174,1250)"/>
<path d="M0 0 C2 1 2 1 2 1 Z " fill="#000000" transform="translate(1106,1249)"/>
<path d="M0 0 C2 1 2 1 2 1 Z " fill="#000000" transform="translate(172,1249)"/>
<path d="M0 0 C2 1 2 1 2 1 Z " fill="#000000" transform="translate(1109,1248)"/>
<path d="M0 0 C2 1 2 1 2 1 Z " fill="#000000" transform="translate(169,1248)"/>
<path d="M0 0 C2 1 2 1 2 1 Z " fill="#000000" transform="translate(1111,1247)"/>
<path d="M0 0 C2 1 2 1 2 1 Z " fill="#000000" transform="translate(167,1247)"/>
<path d="M0 0 C2 1 2 1 2 1 Z " fill="#000000" transform="translate(1113,1246)"/>
<path d="M0 0 C2 1 2 1 2 1 Z " fill="#000000" transform="translate(165,1246)"/>
<path d="M0 0 C2 1 2 1 2 1 Z " fill="#000000" transform="translate(1115,1245)"/>
<path d="M0 0 C2 1 2 1 2 1 Z " fill="#000000" transform="translate(163,1245)"/>
<path d="M0 0 C2 1 2 1 2 1 Z " fill="#000000" transform="translate(1117,1244)"/>
<path d="M0 0 C2 1 2 1 2 1 Z " fill="#000000" transform="translate(161,1244)"/>
<path d="M0 0 C2 1 2 1 2 1 Z " fill="#000000" transform="translate(1119,1243)"/>
<path d="M0 0 C2 1 2 1 2 1 Z " fill="#000000" transform="translate(159,1243)"/>
<path d="M0 0 C2 1 2 1 2 1 Z " fill="#000000" transform="translate(1121,1242)"/>
<path d="M0 0 C2 1 2 1 2 1 Z " fill="#000000" transform="translate(157,1242)"/>
<path d="M0 0 C2 1 2 1 2 1 Z " fill="#000000" transform="translate(1123,1241)"/>
<path d="M0 0 C2 1 2 1 2 1 Z " fill="#000000" transform="translate(155,1241)"/>
<path d="M0 0 C2 1 2 1 2 1 Z " fill="#000000" transform="translate(1125,1240)"/>
<path d="M0 0 C2 1 2 1 2 1 Z " fill="#000000" transform="translate(153,1240)"/>
<path d="M0 0 C2 1 2 1 2 1 Z " fill="#000000" transform="translate(1128,1238)"/>
<path d="M0 0 C2 1 2 1 2 1 Z " fill="#000000" transform="translate(150,1238)"/>
<path d="M0 0 C2 1 2 1 2 1 Z " fill="#000000" transform="translate(1130,1237)"/>
<path d="M0 0 C2 1 2 1 2 1 Z " fill="#000000" transform="translate(148,1237)"/>
<path d="M0 0 C2 1 2 1 2 1 Z " fill="#000000" transform="translate(1132,1236)"/>
<path d="M0 0 C2 1 2 1 2 1 Z " fill="#000000" transform="translate(146,1236)"/>
<path d="M0 0 C2 1 2 1 2 1 Z " fill="#000000" transform="translate(1135,1234)"/>
<path d="M0 0 C2 1 2 1 2 1 Z " fill="#000000" transform="translate(143,1234)"/>
<path d="M0 0 C2 1 2 1 2 1 Z " fill="#000000" transform="translate(1137,1233)"/>
<path d="M0 0 C2 1 2 1 2 1 Z " fill="#000000" transform="translate(141,1233)"/>
<path d="M0 0 C2 1 2 1 2 1 Z " fill="#000000" transform="translate(1140,1231)"/>
<path d="M0 0 C2 1 2 1 2 1 Z " fill="#000000" transform="translate(138,1231)"/>
<path d="M0 0 C2 1 2 1 2 1 Z " fill="#000000" transform="translate(1143,1229)"/>
<path d="M0 0 C2 1 2 1 2 1 Z " fill="#000000" transform="translate(135,1229)"/>
<path d="M0 0 C2 1 2 1 2 1 Z " fill="#000000" transform="translate(1146,1227)"/>
<path d="M0 0 C2 1 2 1 2 1 Z " fill="#000000" transform="translate(132,1227)"/>
<path d="M0 0 C2 1 2 1 2 1 Z " fill="#000000" transform="translate(1148,1226)"/>
<path d="M0 0 C2 1 2 1 2 1 Z " fill="#000000" transform="translate(130,1226)"/>
<path d="M0 0 C2 1 2 1 2 1 Z " fill="#000000" transform="translate(1152,1223)"/>
<path d="M0 0 C2 1 2 1 2 1 Z " fill="#000000" transform="translate(126,1223)"/>
<path d="M0 0 C2 1 2 1 2 1 Z " fill="#000000" transform="translate(1155,1221)"/>
<path d="M0 0 C2 1 2 1 2 1 Z " fill="#000000" transform="translate(123,1221)"/>
<path d="M0 0 C2 1 2 1 2 1 Z " fill="#000000" transform="translate(1159,1218)"/>
<path d="M0 0 C2 1 2 1 2 1 Z " fill="#000000" transform="translate(119,1218)"/>
<path d="M0 0 C2 1 2 1 2 1 Z " fill="#000000" transform="translate(1164,1214)"/>
<path d="M0 0 C2 1 2 1 2 1 Z " fill="#000000" transform="translate(114,1214)"/>
<path d="M0 0 C2 1 2 1 2 1 Z " fill="#000000" transform="translate(1168,1211)"/>
<path d="M0 0 C2 1 2 1 2 1 Z " fill="#000000" transform="translate(110,1211)"/>
<path d="" fill="#000000" transform="translate(0,0)"/>
<path d="" fill="#000000" transform="translate(0,0)"/>
<path d="" fill="#000000" transform="translate(0,0)"/>
<path d="" fill="#000000" transform="translate(0,0)"/>
<path d="" fill="#000000" transform="translate(0,0)"/>
<path d="" fill="#000000" transform="translate(0,0)"/>
<path d="" fill="#000000" transform="translate(0,0)"/>
<path d="" fill="#000000" transform="translate(0,0)"/>
<path d="" fill="#000000" transform="translate(0,0)"/>
<path d="" fill="#000000" transform="translate(0,0)"/>
<path d="" fill="#000000" transform="translate(0,0)"/>
<path d="" fill="#000000" transform="translate(0,0)"/>
<path d="" fill="#000000" transform="translate(0,0)"/>
<path d="" fill="#000000" transform="translate(0,0)"/>
<path d="" fill="#000000" transform="translate(0,0)"/>
<path d="" fill="#000000" transform="translate(0,0)"/>
<path d="" fill="#000000" transform="translate(0,0)"/>
<path d="" fill="#000000" transform="translate(0,0)"/>
<path d="" fill="#000000" transform="translate(0,0)"/>
<path d="" fill="#000000" transform="translate(0,0)"/>
<path d="" fill="#000000" transform="translate(0,0)"/>
<path d="" fill="#000000" transform="translate(0,0)"/>
<path d="" fill="#000000" transform="translate(0,0)"/>
<path d="" fill="#000000" transform="translate(0,0)"/>
<path d="" fill="#000000" transform="translate(0,0)"/>
<path d="" fill="#000000" transform="translate(0,0)"/>
<path d="" fill="#000000" transform="translate(0,0)"/>
<path d="" fill="#000000" transform="translate(0,0)"/>
<path d="" fill="#000000" transform="translate(0,0)"/>
<path d="" fill="#000000" transform="translate(0,0)"/>
<path d="" fill="#000000" transform="translate(0,0)"/>
<path d="" fill="#000000" transform="translate(0,0)"/>
<path d="M0 0 C2 1 2 1 2 1 Z " fill="#000000" transform="translate(1168,68)"/>
<path d="M0 0 C2 1 2 1 2 1 Z " fill="#000000" transform="translate(110,68)"/>
<path d="M0 0 C2 1 2 1 2 1 Z " fill="#000000" transform="translate(1164,65)"/>
<path d="M0 0 C2 1 2 1 2 1 Z " fill="#000000" transform="translate(114,65)"/>
<path d="M0 0 C2 1 2 1 2 1 Z " fill="#000000" transform="translate(1159,61)"/>
<path d="M0 0 C2 1 2 1 2 1 Z " fill="#000000" transform="translate(119,61)"/>
<path d="M0 0 C2 1 2 1 2 1 Z " fill="#000000" transform="translate(1155,58)"/>
<path d="M0 0 C2 1 2 1 2 1 Z " fill="#000000" transform="translate(123,58)"/>
<path d="M0 0 C2 1 2 1 2 1 Z " fill="#000000" transform="translate(1152,56)"/>
<path d="M0 0 C2 1 2 1 2 1 Z " fill="#000000" transform="translate(126,56)"/>
<path d="M0 0 C2 1 2 1 2 1 Z " fill="#000000" transform="translate(1148,53)"/>
<path d="M0 0 C2 1 2 1 2 1 Z " fill="#000000" transform="translate(130,53)"/>
<path d="M0 0 C2 1 2 1 2 1 Z " fill="#000000" transform="translate(1146,52)"/>
<path d="M0 0 C2 1 2 1 2 1 Z " fill="#000000" transform="translate(132,52)"/>
<path d="M0 0 C2 1 2 1 2 1 Z " fill="#000000" transform="translate(1143,50)"/>
<path d="M0 0 C2 1 2 1 2 1 Z " fill="#000000" transform="translate(135,50)"/>
<path d="M0 0 C2 1 2 1 2 1 Z " fill="#000000" transform="translate(1140,48)"/>
<path d="M0 0 C2 1 2 1 2 1 Z " fill="#000000" transform="translate(138,48)"/>
<path d="M0 0 C2 1 2 1 2 1 Z " fill="#000000" transform="translate(1137,46)"/>
<path d="M0 0 C2 1 2 1 2 1 Z " fill="#000000" transform="translate(141,46)"/>
<path d="M0 0 C2 1 2 1 2 1 Z " fill="#000000" transform="translate(1135,45)"/>
<path d="M0 0 C2 1 2 1 2 1 Z " fill="#000000" transform="translate(143,45)"/>
<path d="M0 0 C2 1 2 1 2 1 Z " fill="#000000" transform="translate(1132,43)"/>
<path d="M0 0 C2 1 2 1 2 1 Z " fill="#000000" transform="translate(146,43)"/>
<path d="M0 0 C2 1 2 1 2 1 Z " fill="#000000" transform="translate(1130,42)"/>
<path d="M0 0 C2 1 2 1 2 1 Z " fill="#000000" transform="translate(148,42)"/>
<path d="M0 0 C2 1 2 1 2 1 Z " fill="#000000" transform="translate(1128,41)"/>
<path d="M0 0 C2 1 2 1 2 1 Z " fill="#000000" transform="translate(150,41)"/>
<path d="M0 0 C2 1 2 1 2 1 Z " fill="#000000" transform="translate(1125,39)"/>
<path d="M0 0 C2 1 2 1 2 1 Z " fill="#000000" transform="translate(153,39)"/>
<path d="M0 0 C2 1 2 1 2 1 Z " fill="#000000" transform="translate(1123,38)"/>
<path d="M0 0 C2 1 2 1 2 1 Z " fill="#000000" transform="translate(155,38)"/>
<path d="M0 0 C2 1 2 1 2 1 Z " fill="#000000" transform="translate(1121,37)"/>
<path d="M0 0 C2 1 2 1 2 1 Z " fill="#000000" transform="translate(157,37)"/>
<path d="M0 0 C2 1 2 1 2 1 Z " fill="#000000" transform="translate(1119,36)"/>
<path d="M0 0 C2 1 2 1 2 1 Z " fill="#000000" transform="translate(159,36)"/>
<path d="M0 0 C2 1 2 1 2 1 Z " fill="#000000" transform="translate(1117,35)"/>
<path d="M0 0 C2 1 2 1 2 1 Z " fill="#000000" transform="translate(161,35)"/>
<path d="M0 0 C2 1 2 1 2 1 Z " fill="#000000" transform="translate(1115,34)"/>
<path d="M0 0 C2 1 2 1 2 1 Z " fill="#000000" transform="translate(163,34)"/>
<path d="M0 0 C2 1 2 1 2 1 Z " fill="#000000" transform="translate(1113,33)"/>
<path d="M0 0 C2 1 2 1 2 1 Z " fill="#000000" transform="translate(165,33)"/>
<path d="M0 0 C2 1 2 1 2 1 Z " fill="#000000" transform="translate(1111,32)"/>
<path d="M0 0 C2 1 2 1 2 1 Z " fill="#000000" transform="translate(167,32)"/>
<path d="M0 0 C2 1 2 1 2 1 Z " fill="#000000" transform="translate(1109,31)"/>
<path d="M0 0 C2 1 2 1 2 1 Z " fill="#000000" transform="translate(169,31)"/>
<path d="M0 0 C2 1 2 1 2 1 Z " fill="#000000" transform="translate(1106,30)"/>
<path d="M0 0 C2 1 2 1 2 1 Z " fill="#000000" transform="translate(172,30)"/>
<path d="M0 0 C2 1 2 1 2 1 Z " fill="#000000" transform="translate(1104,29)"/>
<path d="M0 0 C2 1 2 1 2 1 Z " fill="#000000" transform="translate(174,29)"/>
<path d="M0 0 C2 1 2 1 2 1 Z " fill="#000000" transform="translate(1102,28)"/>
<path d="M0 0 C2 1 2 1 2 1 Z " fill="#000000" transform="translate(176,28)"/>
<path d="M0 0 C2 1 2 1 2 1 Z " fill="#000000" transform="translate(1100,27)"/>
<path d="M0 0 C2 1 2 1 2 1 Z " fill="#000000" transform="translate(178,27)"/>
<path d="M0 0 C2 1 2 1 2 1 Z " fill="#000000" transform="translate(1092,24)"/>
<path d="M0 0 C2 1 2 1 2 1 Z " fill="#000000" transform="translate(186,24)"/>
<path d="M0 0 C2 1 2 1 2 1 Z " fill="#000000" transform="translate(1090,23)"/>
<path d="M0 0 C2 1 2 1 2 1 Z " fill="#000000" transform="translate(188,23)"/>
<path d="M0 0 C2 1 2 1 2 1 Z " fill="#000000" transform="translate(1084,21)"/>
<path d="M0 0 C2 1 2 1 2 1 Z " fill="#000000" transform="translate(194,21)"/>
<path d="" fill="#000000" transform="translate(0,0)"/>
<path d="" fill="#000000" transform="translate(0,0)"/>
<path d="" fill="#000000" transform="translate(0,0)"/>
<path d="" fill="#000000" transform="translate(0,0)"/>
<path d="" fill="#000000" transform="translate(0,0)"/>
<path d="" fill="#000000" transform="translate(0,0)"/>
<path d="" fill="#000000" transform="translate(0,0)"/>
<path d="" fill="#000000" transform="translate(0,0)"/>
<path d="" fill="#000000" transform="translate(0,0)"/>
<path d="" fill="#000000" transform="translate(0,0)"/>
<path d="" fill="#000000" transform="translate(0,0)"/>
<path d="" fill="#000000" transform="translate(0,0)"/>
<path d="" fill="#000000" transform="translate(0,0)"/>
<path d="" fill="#000000" transform="translate(0,0)"/>
<path d="" fill="#000000" transform="translate(0,0)"/>
<path d="" fill="#000000" transform="translate(0,0)"/>
<path d="" fill="#000000" transform="translate(0,0)"/>
<path d="" fill="#000000" transform="translate(0,0)"/>
<path d="" fill="#000000" transform="translate(0,0)"/>
<path d="" fill="#000000" transform="translate(0,0)"/>
<path d="" fill="#000000" transform="translate(0,0)"/>
<path d="" fill="#000000" transform="translate(0,0)"/>
<path d="" fill="#000000" transform="translate(0,0)"/>
<path d="" fill="#000000" transform="translate(0,0)"/>
<path d="" fill="#000000" transform="translate(0,0)"/>
<path d="" fill="#000000" transform="translate(0,0)"/>
<path d="" fill="#000000" transform="translate(0,0)"/>
<path d="" fill="#000000" transform="translate(0,0)"/>
<path d="" fill="#000000" transform="translate(0,0)"/>
<path d="" fill="#000000" transform="translate(0,0)"/>
<path d="" fill="#000000" transform="translate(0,0)"/>
<path d="" fill="#000000" transform="translate(0,0)"/>
<path d="" fill="#000000" transform="translate(0,0)"/>
<path d="" fill="#000000" transform="translate(0,0)"/>
<path d="" fill="#000000" transform="translate(0,0)"/>
<path d="" fill="#000000" transform="translate(0,0)"/>
<path d="" fill="#000000" transform="translate(0,0)"/>
<path d="" fill="#000000" transform="translate(0,0)"/>
<path d="" fill="#000000" transform="translate(0,0)"/>
<path d="" fill="#000000" transform="translate(0,0)"/>
<path d="" fill="#000000" transform="translate(0,0)"/>
<path d="" fill="#000000" transform="translate(0,0)"/>
<path d="" fill="#000000" transform="translate(0,0)"/>
<path d="" fill="#000000" transform="translate(0,0)"/>
<path d="" fill="#000000" transform="translate(0,0)"/>
<path d="" fill="#000000" transform="translate(0,0)"/>
<path d="" fill="#000000" transform="translate(0,0)"/>
<path d="" fill="#000000" transform="translate(0,0)"/>
<path d="" fill="#000000" transform="translate(0,0)"/>
<path d="" fill="#000000" transform="translate(0,0)"/>
<path d="" fill="#000000" transform="translate(0,0)"/>
<path d="" fill="#000000" transform="translate(0,0)"/>
<path d="" fill="#000000" transform="translate(0,0)"/>
<path d="" fill="#000000" transform="translate(0,0)"/>
<path d="" fill="#000000" transform="translate(0,0)"/>
<path d="" fill="#000000" transform="translate(0,0)"/>
<path d="" fill="#000000" transform="translate(0,0)"/>
<path d="" fill="#000000" transform="translate(0,0)"/>
<path d="" fill="#000000" transform="translate(0,0)"/>
<path d="" fill="#000000" transform="translate(0,0)"/>
<path d="" fill="#000000" transform="translate(0,0)"/>
<path d="" fill="#000000" transform="translate(0,0)"/>
<path d="" fill="#000000" transform="translate(0,0)"/>
<path d="" fill="#000000" transform="translate(0,0)"/>
<path d="" fill="#000000" transform="translate(0,0)"/>
<path d="" fill="#000000" transform="translate(0,0)"/>
<path d="" fill="#000000" transform="translate(0,0)"/>
<path d="" fill="#000000" transform="translate(0,0)"/>
<path d="" fill="#000000" transform="translate(0,0)"/>
<path d="" fill="#000000" transform="translate(0,0)"/>
<path d="" fill="#000000" transform="translate(0,0)"/>
<path d="" fill="#000000" transform="translate(0,0)"/>
<path d="" fill="#000000" transform="translate(0,0)"/>
<path d="" fill="#000000" transform="translate(0,0)"/>
<path d="" fill="#000000" transform="translate(0,0)"/>
<path d="" fill="#000000" transform="translate(0,0)"/>
<path d="" fill="#000000" transform="translate(0,0)"/>
<path d="" fill="#000000" transform="translate(0,0)"/>
<path d="" fill="#000000" transform="translate(0,0)"/>
<path d="" fill="#000000" transform="translate(0,0)"/>
<path d="" fill="#000000" transform="translate(0,0)"/>
<path d="" fill="#000000" transform="translate(0,0)"/>
<path d="" fill="#000000" transform="translate(0,0)"/>
<path d="" fill="#000000" transform="translate(0,0)"/>
<path d="" fill="#000000" transform="translate(0,0)"/>
<path d="" fill="#000000" transform="translate(0,0)"/>
<path d="" fill="#000000" transform="translate(0,0)"/>
<path d="" fill="#000000" transform="translate(0,0)"/>
<path d="" fill="#000000" transform="translate(0,0)"/>
<path d="" fill="#000000" transform="translate(0,0)"/>
<path d="" fill="#000000" transform="translate(0,0)"/>
<path d="" fill="#000000" transform="translate(0,0)"/>
<path d="" fill="#000000" transform="translate(0,0)"/>
<path d="" fill="#000000" transform="translate(0,0)"/>
<path d="" fill="#000000" transform="translate(0,0)"/>
<path d="" fill="#000000" transform="translate(0,0)"/>
<path d="" fill="#000000" transform="translate(0,0)"/>
<path d="" fill="#000000" transform="translate(0,0)"/>
<path d="" fill="#000000" transform="translate(0,0)"/>
<path d="" fill="#000000" transform="translate(0,0)"/>
<path d="" fill="#000000" transform="translate(0,0)"/>
<path d="" fill="#000000" transform="translate(0,0)"/>
<path d="" fill="#000000" transform="translate(0,0)"/>
<path d="" fill="#000000" transform="translate(0,0)"/>
<path d="" fill="#000000" transform="translate(0,0)"/>
<path d="" fill="#000000" transform="translate(0,0)"/>
<path d="" fill="#000000" transform="translate(0,0)"/>
<path d="" fill="#000000" transform="translate(0,0)"/>
<path d="" fill="#000000" transform="translate(0,0)"/>
<path d="" fill="#000000" transform="translate(0,0)"/>
<path d="" fill="#000000" transform="translate(0,0)"/>
<path d="" fill="#000000" transform="translate(0,0)"/>
<path d="" fill="#000000" transform="translate(0,0)"/>
<path d="" fill="#000000" transform="translate(0,0)"/>
<path d="" fill="#000000" transform="translate(0,0)"/>
<path d="" fill="#000000" transform="translate(0,0)"/>
<path d="" fill="#000000" transform="translate(0,0)"/>
<path d="" fill="#000000" transform="translate(0,0)"/>
<path d="" fill="#000000" transform="translate(0,0)"/>
<path d="" fill="#000000" transform="translate(0,0)"/>
<path d="" fill="#000000" transform="translate(0,0)"/>
<path d="" fill="#000000" transform="translate(0,0)"/>
<path d="" fill="#000000" transform="translate(0,0)"/>
<path d="" fill="#000000" transform="translate(0,0)"/>
<path d="" fill="#000000" transform="translate(0,0)"/>
<path d="" fill="#000000" transform="translate(0,0)"/>
<path d="" fill="#000000" transform="translate(0,0)"/>
<path d="" fill="#000000" transform="translate(0,0)"/>
<path d="" fill="#000000" transform="translate(0,0)"/>
<path d="" fill="#000000" transform="translate(0,0)"/>
<path d="" fill="#000000" transform="translate(0,0)"/>
<path d="" fill="#000000" transform="translate(0,0)"/>
<path d="" fill="#000000" transform="translate(0,0)"/>
<path d="" fill="#000000" transform="translate(0,0)"/>
<path d="" fill="#000000" transform="translate(0,0)"/>
<path d="" fill="#000000" transform="translate(0,0)"/>
<path d="" fill="#000000" transform="translate(0,0)"/>
<path d="" fill="#000000" transform="translate(0,0)"/>
<path d="" fill="#000000" transform="translate(0,0)"/>
<path d="" fill="#000000" transform="translate(0,0)"/>
<path d="" fill="#000000" transform="translate(0,0)"/>
<path d="" fill="#000000" transform="translate(0,0)"/>
<path d="" fill="#000000" transform="translate(0,0)"/>
<path d="" fill="#000000" transform="translate(0,0)"/>
<path d="" fill="#000000" transform="translate(0,0)"/>
<path d="" fill="#000000" transform="translate(0,0)"/>
<path d="" fill="#000000" transform="translate(0,0)"/>
<path d="" fill="#000000" transform="translate(0,0)"/>
<path d="" fill="#000000" transform="translate(0,0)"/>
<path d="" fill="#000000" transform="translate(0,0)"/>
<path d="" fill="#000000" transform="translate(0,0)"/>
<path d="" fill="#000000" transform="translate(0,0)"/>
<path d="" fill="#000000" transform="translate(0,0)"/>
<path d="" fill="#000000" transform="translate(0,0)"/>
<path d="" fill="#000000" transform="translate(0,0)"/>
<path d="" fill="#000000" transform="translate(0,0)"/>
<path d="" fill="#000000" transform="translate(0,0)"/>
<path d="" fill="#000000" transform="translate(0,0)"/>
<path d="" fill="#000000" transform="translate(0,0)"/>
<path d="" fill="#000000" transform="translate(0,0)"/>
<path d="" fill="#000000" transform="translate(0,0)"/>
<path d="" fill="#000000" transform="translate(0,0)"/>
<path d="" fill="#000000" transform="translate(0,0)"/>
<path d="" fill="#000000" transform="translate(0,0)"/>
<path d="" fill="#000000" transform="translate(0,0)"/>
<path d="" fill="#000000" transform="translate(0,0)"/>
<path d="" fill="#000000" transform="translate(0,0)"/>
<path d="" fill="#000000" transform="translate(0,0)"/>
<path d="" fill="#000000" transform="translate(0,0)"/>
<path d="" fill="#000000" transform="translate(0,0)"/>
<path d="" fill="#000000" transform="translate(0,0)"/>
<path d="" fill="#000000" transform="translate(0,0)"/>
<path d="" fill="#000000" transform="translate(0,0)"/>
<path d="" fill="#000000" transform="translate(0,0)"/>
<path d="" fill="#000000" transform="translate(0,0)"/>
<path d="" fill="#000000" transform="translate(0,0)"/>
<path d="" fill="#000000" transform="translate(0,0)"/>
</svg>
